<svg width="90" height="17" viewBox="0 0 90 17" fill="none" xmlns="http://www.w3.org/2000/svg">
<mask id="path-1-outside-1_57_15" maskUnits="userSpaceOnUse" x="0" y="0" width="90" height="17" fill="black">
<rect fill="white" width="90" height="17"/>
<path d="M18.094 16.33H15.28V10.156C15.28 9.288 15.126 8.651 14.818 8.245C14.524 7.825 14.111 7.615 13.579 7.615C13.019 7.615 12.494 7.832 12.004 8.266C11.514 8.686 11.164 9.239 10.954 9.925V16.33H8.14V10.156C8.14 9.274 7.986 8.63 7.678 8.224C7.384 7.818 6.971 7.615 6.439 7.615C5.893 7.615 5.368 7.825 4.864 8.245C4.374 8.665 4.024 9.218 3.814 9.904V16.33H1V5.326H3.541V7.363C3.947 6.649 4.5 6.103 5.2 5.725C5.914 5.333 6.726 5.137 7.636 5.137C8.546 5.137 9.253 5.361 9.757 5.809C10.275 6.257 10.604 6.81 10.744 7.468C11.178 6.712 11.745 6.138 12.445 5.746C13.145 5.34 13.929 5.137 14.797 5.137C15.483 5.137 16.036 5.263 16.456 5.515C16.89 5.753 17.226 6.082 17.464 6.502C17.702 6.908 17.863 7.37 17.947 7.888C18.045 8.406 18.094 8.931 18.094 9.463V16.33Z"/>
<path d="M19.7879 13.075C19.7879 12.361 19.9839 11.738 20.3759 11.206C20.7819 10.66 21.3419 10.24 22.0559 9.946C22.7699 9.652 23.5889 9.505 24.5129 9.505C24.9749 9.505 25.4439 9.547 25.9199 9.631C26.3959 9.701 26.8089 9.806 27.1589 9.946V9.358C27.1589 8.658 26.9489 8.119 26.5289 7.741C26.1229 7.363 25.5139 7.174 24.7019 7.174C24.0999 7.174 23.5259 7.279 22.9799 7.489C22.4339 7.699 21.8599 8.007 21.2579 8.413L20.3549 6.565C21.0829 6.089 21.8249 5.732 22.5809 5.494C23.3509 5.256 24.1559 5.137 24.9959 5.137C26.5639 5.137 27.7819 5.529 28.6499 6.313C29.5319 7.097 29.9729 8.217 29.9729 9.673V13.18C29.9729 13.488 30.0219 13.705 30.1199 13.831C30.2179 13.943 30.3929 14.013 30.6449 14.041V16.33C30.3929 16.386 30.1619 16.421 29.9519 16.435C29.7559 16.463 29.5879 16.477 29.4479 16.477C28.8879 16.477 28.4609 16.351 28.1669 16.099C27.8729 15.847 27.6979 15.539 27.6419 15.175L27.5789 14.608C27.0889 15.238 26.4869 15.721 25.7729 16.057C25.0729 16.379 24.3519 16.54 23.6099 16.54C22.8679 16.54 22.2099 16.393 21.6359 16.099C21.0619 15.791 20.6069 15.378 20.2709 14.86C19.9489 14.328 19.7879 13.733 19.7879 13.075ZM26.6339 13.642C26.9839 13.306 27.1589 12.984 27.1589 12.676V11.563C26.4309 11.269 25.6959 11.122 24.9539 11.122C24.2119 11.122 23.6099 11.283 23.1479 11.605C22.6859 11.913 22.4549 12.326 22.4549 12.844C22.4549 13.264 22.6229 13.642 22.9589 13.978C23.2949 14.314 23.7779 14.482 24.4079 14.482C24.8279 14.482 25.2339 14.405 25.6259 14.251C26.0319 14.097 26.3679 13.894 26.6339 13.642Z"/>
<path d="M39.1545 7.762C38.3005 7.762 37.5375 7.93 36.8655 8.266C36.1935 8.588 35.7105 9.057 35.4165 9.673V16.33H32.6025V5.326H35.1855V7.678C35.5635 6.922 36.0535 6.327 36.6555 5.893C37.2715 5.459 37.9155 5.221 38.5875 5.179C38.8815 5.179 39.0705 5.186 39.1545 5.2V7.762Z"/>
<path d="M50.9506 16.33H48.1366V10.156C48.1366 9.302 47.9686 8.665 47.6326 8.245C47.3106 7.825 46.8626 7.615 46.2886 7.615C45.9386 7.615 45.5746 7.713 45.1966 7.909C44.8326 8.105 44.4966 8.378 44.1886 8.728C43.8946 9.064 43.6776 9.456 43.5376 9.904V16.33H40.7236V1H43.5376V7.363C43.9436 6.663 44.4966 6.117 45.1966 5.725C45.8966 5.333 46.6596 5.137 47.4856 5.137C48.4236 5.137 49.1446 5.347 49.6486 5.767C50.1526 6.187 50.4956 6.726 50.6776 7.384C50.8596 8.042 50.9506 8.735 50.9506 9.463V16.33Z"/>
<path d="M53.3975 3.793V1H56.2115V3.793H53.3975ZM53.3975 16.33V5.326H56.2115V16.33H53.3975Z"/>
<path d="M75.844 16.33H73.03V10.156C73.03 9.288 72.876 8.651 72.568 8.245C72.274 7.825 71.861 7.615 71.329 7.615C70.769 7.615 70.244 7.832 69.754 8.266C69.264 8.686 68.914 9.239 68.704 9.925V16.33H65.89V10.156C65.89 9.274 65.736 8.63 65.428 8.224C65.134 7.818 64.721 7.615 64.189 7.615C63.643 7.615 63.118 7.825 62.614 8.245C62.124 8.665 61.774 9.218 61.564 9.904V16.33H58.75V5.326H61.291V7.363C61.697 6.649 62.25 6.103 62.95 5.725C63.664 5.333 64.476 5.137 65.386 5.137C66.296 5.137 67.003 5.361 67.507 5.809C68.025 6.257 68.354 6.81 68.494 7.468C68.928 6.712 69.495 6.138 70.195 5.746C70.895 5.34 71.679 5.137 72.547 5.137C73.233 5.137 73.786 5.263 74.206 5.515C74.64 5.753 74.976 6.082 75.214 6.502C75.452 6.908 75.613 7.37 75.697 7.888C75.795 8.406 75.844 8.931 75.844 9.463V16.33Z"/>
<path d="M83.3969 16.54C82.2069 16.54 81.1779 16.281 80.3099 15.763C79.4559 15.245 78.7909 14.559 78.3149 13.705C77.8389 12.837 77.6009 11.899 77.6009 10.891C77.6009 9.855 77.8319 8.903 78.2939 8.035C78.7699 7.153 79.4419 6.453 80.3099 5.935C81.1779 5.403 82.2139 5.137 83.4179 5.137C84.6219 5.137 85.6509 5.403 86.5049 5.935C87.3589 6.453 88.0099 7.146 88.4579 8.014C88.9199 8.868 89.1509 9.792 89.1509 10.786C89.1509 11.15 89.13 11.465 89.088 11.731H80.5829C80.6529 12.585 80.9679 13.257 81.5279 13.747C82.1019 14.237 82.7599 14.482 83.5019 14.482C84.0619 14.482 84.587 14.349 85.077 14.083C85.581 13.803 85.9239 13.439 86.1059 12.991L88.521 13.663C88.115 14.503 87.4639 15.196 86.5679 15.742C85.6719 16.274 84.6149 16.54 83.3969 16.54ZM80.52 9.946H86.2739C86.1899 9.12 85.8749 8.455 85.3289 7.951C84.7969 7.433 84.1459 7.174 83.3759 7.174C82.6199 7.174 81.969 7.433 81.423 7.951C80.891 8.455 80.59 9.12 80.52 9.946Z"/>
</mask>
<path d="M18.094 16.33H15.28V10.156C15.28 9.288 15.126 8.651 14.818 8.245C14.524 7.825 14.111 7.615 13.579 7.615C13.019 7.615 12.494 7.832 12.004 8.266C11.514 8.686 11.164 9.239 10.954 9.925V16.33H8.14V10.156C8.14 9.274 7.986 8.63 7.678 8.224C7.384 7.818 6.971 7.615 6.439 7.615C5.893 7.615 5.368 7.825 4.864 8.245C4.374 8.665 4.024 9.218 3.814 9.904V16.33H1V5.326H3.541V7.363C3.947 6.649 4.5 6.103 5.2 5.725C5.914 5.333 6.726 5.137 7.636 5.137C8.546 5.137 9.253 5.361 9.757 5.809C10.275 6.257 10.604 6.81 10.744 7.468C11.178 6.712 11.745 6.138 12.445 5.746C13.145 5.34 13.929 5.137 14.797 5.137C15.483 5.137 16.036 5.263 16.456 5.515C16.89 5.753 17.226 6.082 17.464 6.502C17.702 6.908 17.863 7.37 17.947 7.888C18.045 8.406 18.094 8.931 18.094 9.463V16.33Z" fill="black"/>
<path d="M19.7879 13.075C19.7879 12.361 19.9839 11.738 20.3759 11.206C20.7819 10.66 21.3419 10.24 22.0559 9.946C22.7699 9.652 23.5889 9.505 24.5129 9.505C24.9749 9.505 25.4439 9.547 25.9199 9.631C26.3959 9.701 26.8089 9.806 27.1589 9.946V9.358C27.1589 8.658 26.9489 8.119 26.5289 7.741C26.1229 7.363 25.5139 7.174 24.7019 7.174C24.0999 7.174 23.5259 7.279 22.9799 7.489C22.4339 7.699 21.8599 8.007 21.2579 8.413L20.3549 6.565C21.0829 6.089 21.8249 5.732 22.5809 5.494C23.3509 5.256 24.1559 5.137 24.9959 5.137C26.5639 5.137 27.7819 5.529 28.6499 6.313C29.5319 7.097 29.9729 8.217 29.9729 9.673V13.18C29.9729 13.488 30.0219 13.705 30.1199 13.831C30.2179 13.943 30.3929 14.013 30.6449 14.041V16.33C30.3929 16.386 30.1619 16.421 29.9519 16.435C29.7559 16.463 29.5879 16.477 29.4479 16.477C28.8879 16.477 28.4609 16.351 28.1669 16.099C27.8729 15.847 27.6979 15.539 27.6419 15.175L27.5789 14.608C27.0889 15.238 26.4869 15.721 25.7729 16.057C25.0729 16.379 24.3519 16.54 23.6099 16.54C22.8679 16.54 22.2099 16.393 21.6359 16.099C21.0619 15.791 20.6069 15.378 20.2709 14.86C19.9489 14.328 19.7879 13.733 19.7879 13.075ZM26.6339 13.642C26.9839 13.306 27.1589 12.984 27.1589 12.676V11.563C26.4309 11.269 25.6959 11.122 24.9539 11.122C24.2119 11.122 23.6099 11.283 23.1479 11.605C22.6859 11.913 22.4549 12.326 22.4549 12.844C22.4549 13.264 22.6229 13.642 22.9589 13.978C23.2949 14.314 23.7779 14.482 24.4079 14.482C24.8279 14.482 25.2339 14.405 25.6259 14.251C26.0319 14.097 26.3679 13.894 26.6339 13.642Z" fill="black"/>
<path d="M39.1545 7.762C38.3005 7.762 37.5375 7.93 36.8655 8.266C36.1935 8.588 35.7105 9.057 35.4165 9.673V16.33H32.6025V5.326H35.1855V7.678C35.5635 6.922 36.0535 6.327 36.6555 5.893C37.2715 5.459 37.9155 5.221 38.5875 5.179C38.8815 5.179 39.0705 5.186 39.1545 5.2V7.762Z" fill="black"/>
<path d="M50.9506 16.33H48.1366V10.156C48.1366 9.302 47.9686 8.665 47.6326 8.245C47.3106 7.825 46.8626 7.615 46.2886 7.615C45.9386 7.615 45.5746 7.713 45.1966 7.909C44.8326 8.105 44.4966 8.378 44.1886 8.728C43.8946 9.064 43.6776 9.456 43.5376 9.904V16.33H40.7236V1H43.5376V7.363C43.9436 6.663 44.4966 6.117 45.1966 5.725C45.8966 5.333 46.6596 5.137 47.4856 5.137C48.4236 5.137 49.1446 5.347 49.6486 5.767C50.1526 6.187 50.4956 6.726 50.6776 7.384C50.8596 8.042 50.9506 8.735 50.9506 9.463V16.33Z" fill="black"/>
<path d="M53.3975 3.793V1H56.2115V3.793H53.3975ZM53.3975 16.33V5.326H56.2115V16.33H53.3975Z" fill="black"/>
<path d="M75.844 16.33H73.03V10.156C73.03 9.288 72.876 8.651 72.568 8.245C72.274 7.825 71.861 7.615 71.329 7.615C70.769 7.615 70.244 7.832 69.754 8.266C69.264 8.686 68.914 9.239 68.704 9.925V16.33H65.89V10.156C65.89 9.274 65.736 8.63 65.428 8.224C65.134 7.818 64.721 7.615 64.189 7.615C63.643 7.615 63.118 7.825 62.614 8.245C62.124 8.665 61.774 9.218 61.564 9.904V16.33H58.75V5.326H61.291V7.363C61.697 6.649 62.25 6.103 62.95 5.725C63.664 5.333 64.476 5.137 65.386 5.137C66.296 5.137 67.003 5.361 67.507 5.809C68.025 6.257 68.354 6.81 68.494 7.468C68.928 6.712 69.495 6.138 70.195 5.746C70.895 5.34 71.679 5.137 72.547 5.137C73.233 5.137 73.786 5.263 74.206 5.515C74.64 5.753 74.976 6.082 75.214 6.502C75.452 6.908 75.613 7.37 75.697 7.888C75.795 8.406 75.844 8.931 75.844 9.463V16.33Z" fill="black"/>
<path d="M83.3969 16.54C82.2069 16.54 81.1779 16.281 80.3099 15.763C79.4559 15.245 78.7909 14.559 78.3149 13.705C77.8389 12.837 77.6009 11.899 77.6009 10.891C77.6009 9.855 77.8319 8.903 78.2939 8.035C78.7699 7.153 79.4419 6.453 80.3099 5.935C81.1779 5.403 82.2139 5.137 83.4179 5.137C84.6219 5.137 85.6509 5.403 86.5049 5.935C87.3589 6.453 88.0099 7.146 88.4579 8.014C88.9199 8.868 89.1509 9.792 89.1509 10.786C89.1509 11.15 89.13 11.465 89.088 11.731H80.5829C80.6529 12.585 80.9679 13.257 81.5279 13.747C82.1019 14.237 82.7599 14.482 83.5019 14.482C84.0619 14.482 84.587 14.349 85.077 14.083C85.581 13.803 85.9239 13.439 86.1059 12.991L88.521 13.663C88.115 14.503 87.4639 15.196 86.5679 15.742C85.6719 16.274 84.6149 16.54 83.3969 16.54ZM80.52 9.946H86.2739C86.1899 9.12 85.8749 8.455 85.3289 7.951C84.7969 7.433 84.1459 7.174 83.3759 7.174C82.6199 7.174 81.969 7.433 81.423 7.951C80.891 8.455 80.59 9.12 80.52 9.946Z" fill="black"/>
<path d="M18.094 16.33H15.28V10.156C15.28 9.288 15.126 8.651 14.818 8.245C14.524 7.825 14.111 7.615 13.579 7.615C13.019 7.615 12.494 7.832 12.004 8.266C11.514 8.686 11.164 9.239 10.954 9.925V16.33H8.14V10.156C8.14 9.274 7.986 8.63 7.678 8.224C7.384 7.818 6.971 7.615 6.439 7.615C5.893 7.615 5.368 7.825 4.864 8.245C4.374 8.665 4.024 9.218 3.814 9.904V16.33H1V5.326H3.541V7.363C3.947 6.649 4.5 6.103 5.2 5.725C5.914 5.333 6.726 5.137 7.636 5.137C8.546 5.137 9.253 5.361 9.757 5.809C10.275 6.257 10.604 6.81 10.744 7.468C11.178 6.712 11.745 6.138 12.445 5.746C13.145 5.34 13.929 5.137 14.797 5.137C15.483 5.137 16.036 5.263 16.456 5.515C16.89 5.753 17.226 6.082 17.464 6.502C17.702 6.908 17.863 7.37 17.947 7.888C18.045 8.406 18.094 8.931 18.094 9.463V16.33Z" stroke="white" stroke-width="0.8" mask="url(#path-1-outside-1_57_15)"/>
<path d="M19.7879 13.075C19.7879 12.361 19.9839 11.738 20.3759 11.206C20.7819 10.66 21.3419 10.24 22.0559 9.946C22.7699 9.652 23.5889 9.505 24.5129 9.505C24.9749 9.505 25.4439 9.547 25.9199 9.631C26.3959 9.701 26.8089 9.806 27.1589 9.946V9.358C27.1589 8.658 26.9489 8.119 26.5289 7.741C26.1229 7.363 25.5139 7.174 24.7019 7.174C24.0999 7.174 23.5259 7.279 22.9799 7.489C22.4339 7.699 21.8599 8.007 21.2579 8.413L20.3549 6.565C21.0829 6.089 21.8249 5.732 22.5809 5.494C23.3509 5.256 24.1559 5.137 24.9959 5.137C26.5639 5.137 27.7819 5.529 28.6499 6.313C29.5319 7.097 29.9729 8.217 29.9729 9.673V13.18C29.9729 13.488 30.0219 13.705 30.1199 13.831C30.2179 13.943 30.3929 14.013 30.6449 14.041V16.33C30.3929 16.386 30.1619 16.421 29.9519 16.435C29.7559 16.463 29.5879 16.477 29.4479 16.477C28.8879 16.477 28.4609 16.351 28.1669 16.099C27.8729 15.847 27.6979 15.539 27.6419 15.175L27.5789 14.608C27.0889 15.238 26.4869 15.721 25.7729 16.057C25.0729 16.379 24.3519 16.54 23.6099 16.54C22.8679 16.54 22.2099 16.393 21.6359 16.099C21.0619 15.791 20.6069 15.378 20.2709 14.86C19.9489 14.328 19.7879 13.733 19.7879 13.075ZM26.6339 13.642C26.9839 13.306 27.1589 12.984 27.1589 12.676V11.563C26.4309 11.269 25.6959 11.122 24.9539 11.122C24.2119 11.122 23.6099 11.283 23.1479 11.605C22.6859 11.913 22.4549 12.326 22.4549 12.844C22.4549 13.264 22.6229 13.642 22.9589 13.978C23.2949 14.314 23.7779 14.482 24.4079 14.482C24.8279 14.482 25.2339 14.405 25.6259 14.251C26.0319 14.097 26.3679 13.894 26.6339 13.642Z" stroke="white" stroke-width="0.8" mask="url(#path-1-outside-1_57_15)"/>
<path d="M39.1545 7.762C38.3005 7.762 37.5375 7.93 36.8655 8.266C36.1935 8.588 35.7105 9.057 35.4165 9.673V16.33H32.6025V5.326H35.1855V7.678C35.5635 6.922 36.0535 6.327 36.6555 5.893C37.2715 5.459 37.9155 5.221 38.5875 5.179C38.8815 5.179 39.0705 5.186 39.1545 5.2V7.762Z" stroke="white" stroke-width="0.8" mask="url(#path-1-outside-1_57_15)"/>
<path d="M50.9506 16.33H48.1366V10.156C48.1366 9.302 47.9686 8.665 47.6326 8.245C47.3106 7.825 46.8626 7.615 46.2886 7.615C45.9386 7.615 45.5746 7.713 45.1966 7.909C44.8326 8.105 44.4966 8.378 44.1886 8.728C43.8946 9.064 43.6776 9.456 43.5376 9.904V16.33H40.7236V1H43.5376V7.363C43.9436 6.663 44.4966 6.117 45.1966 5.725C45.8966 5.333 46.6596 5.137 47.4856 5.137C48.4236 5.137 49.1446 5.347 49.6486 5.767C50.1526 6.187 50.4956 6.726 50.6776 7.384C50.8596 8.042 50.9506 8.735 50.9506 9.463V16.33Z" stroke="white" stroke-width="0.8" mask="url(#path-1-outside-1_57_15)"/>
<path d="M53.3975 3.793V1H56.2115V3.793H53.3975ZM53.3975 16.33V5.326H56.2115V16.33H53.3975Z" stroke="white" stroke-width="0.8" mask="url(#path-1-outside-1_57_15)"/>
<path d="M75.844 16.33H73.03V10.156C73.03 9.288 72.876 8.651 72.568 8.245C72.274 7.825 71.861 7.615 71.329 7.615C70.769 7.615 70.244 7.832 69.754 8.266C69.264 8.686 68.914 9.239 68.704 9.925V16.33H65.89V10.156C65.89 9.274 65.736 8.63 65.428 8.224C65.134 7.818 64.721 7.615 64.189 7.615C63.643 7.615 63.118 7.825 62.614 8.245C62.124 8.665 61.774 9.218 61.564 9.904V16.33H58.75V5.326H61.291V7.363C61.697 6.649 62.25 6.103 62.95 5.725C63.664 5.333 64.476 5.137 65.386 5.137C66.296 5.137 67.003 5.361 67.507 5.809C68.025 6.257 68.354 6.81 68.494 7.468C68.928 6.712 69.495 6.138 70.195 5.746C70.895 5.34 71.679 5.137 72.547 5.137C73.233 5.137 73.786 5.263 74.206 5.515C74.64 5.753 74.976 6.082 75.214 6.502C75.452 6.908 75.613 7.37 75.697 7.888C75.795 8.406 75.844 8.931 75.844 9.463V16.33Z" stroke="white" stroke-width="0.8" mask="url(#path-1-outside-1_57_15)"/>
<path d="M83.3969 16.54C82.2069 16.54 81.1779 16.281 80.3099 15.763C79.4559 15.245 78.7909 14.559 78.3149 13.705C77.8389 12.837 77.6009 11.899 77.6009 10.891C77.6009 9.855 77.8319 8.903 78.2939 8.035C78.7699 7.153 79.4419 6.453 80.3099 5.935C81.1779 5.403 82.2139 5.137 83.4179 5.137C84.6219 5.137 85.6509 5.403 86.5049 5.935C87.3589 6.453 88.0099 7.146 88.4579 8.014C88.9199 8.868 89.1509 9.792 89.1509 10.786C89.1509 11.15 89.13 11.465 89.088 11.731H80.5829C80.6529 12.585 80.9679 13.257 81.5279 13.747C82.1019 14.237 82.7599 14.482 83.5019 14.482C84.0619 14.482 84.587 14.349 85.077 14.083C85.581 13.803 85.9239 13.439 86.1059 12.991L88.521 13.663C88.115 14.503 87.4639 15.196 86.5679 15.742C85.6719 16.274 84.6149 16.54 83.3969 16.54ZM80.52 9.946H86.2739C86.1899 9.12 85.8749 8.455 85.3289 7.951C84.7969 7.433 84.1459 7.174 83.3759 7.174C82.6199 7.174 81.969 7.433 81.423 7.951C80.891 8.455 80.59 9.12 80.52 9.946Z" stroke="white" stroke-width="0.8" mask="url(#path-1-outside-1_57_15)"/>
</svg>
