<svg width="98" height="18" viewBox="0 0 98 18" fill="none" xmlns="http://www.w3.org/2000/svg">
<mask id="path-1-outside-1_66_34" maskUnits="userSpaceOnUse" x="0" y="1" width="98" height="17" fill="black">
<rect fill="white" y="1" width="98" height="17"/>
<path d="M18.808 17.33H14.818V11.114C14.818 10.568 14.706 10.176 14.482 9.938C14.272 9.686 14.013 9.56 13.705 9.56C13.397 9.56 13.061 9.707 12.697 10.001C12.333 10.295 12.067 10.673 11.899 11.135V17.33H7.909V11.114C7.909 10.568 7.797 10.176 7.573 9.938C7.363 9.686 7.104 9.56 6.796 9.56C6.488 9.56 6.152 9.707 5.788 10.001C5.424 10.295 5.158 10.673 4.99 11.135V17.33H1V6.284H4.591V7.922C5.389 6.69 6.74 6.074 8.644 6.074C9.554 6.074 10.24 6.27 10.702 6.662C11.164 7.054 11.472 7.495 11.626 7.985C12.018 7.383 12.557 6.914 13.243 6.578C13.929 6.242 14.699 6.074 15.553 6.074C16.281 6.074 16.862 6.207 17.296 6.473C17.73 6.739 18.052 7.082 18.262 7.502C18.486 7.922 18.633 8.363 18.703 8.825C18.773 9.273 18.808 9.686 18.808 10.064V17.33Z"/>
<path d="M20.14 13.991C20.14 13.249 20.343 12.598 20.749 12.038C21.155 11.464 21.715 11.016 22.429 10.694C23.157 10.372 23.983 10.211 24.907 10.211C25.803 10.211 26.545 10.351 27.133 10.631V10.295C27.133 9.777 26.979 9.392 26.671 9.14C26.377 8.888 25.894 8.762 25.222 8.762C24.606 8.762 24.025 8.867 23.479 9.077C22.947 9.273 22.387 9.567 21.799 9.959L20.644 7.481C22.1 6.543 23.759 6.074 25.621 6.074C27.371 6.074 28.722 6.473 29.674 7.271C30.64 8.055 31.123 9.224 31.123 10.778V12.92C31.123 13.298 31.179 13.564 31.291 13.718C31.403 13.858 31.599 13.942 31.879 13.97V17.33C31.557 17.4 31.249 17.449 30.955 17.477C30.675 17.519 30.423 17.54 30.199 17.54C29.485 17.54 28.939 17.414 28.561 17.162C28.197 16.896 27.959 16.511 27.847 16.007L27.763 15.608C26.755 16.896 25.502 17.54 24.004 17.54C23.276 17.54 22.618 17.386 22.03 17.078C21.442 16.77 20.98 16.35 20.644 15.818C20.308 15.272 20.14 14.663 20.14 13.991ZM26.608 14.264C26.958 14.026 27.133 13.767 27.133 13.487V12.668C26.909 12.584 26.65 12.514 26.356 12.458C26.076 12.402 25.824 12.374 25.6 12.374C25.124 12.374 24.718 12.493 24.382 12.731C24.06 12.969 23.899 13.27 23.899 13.634C23.899 13.942 24.018 14.194 24.256 14.39C24.508 14.586 24.823 14.684 25.201 14.684C25.719 14.684 26.188 14.544 26.608 14.264Z"/>
<path d="M40.8173 9.686C40.0473 9.686 39.3473 9.77 38.7173 9.938C38.0873 10.106 37.6183 10.386 37.3103 10.778V17.33H33.3203V6.284H36.9743V8.384C37.3663 7.642 37.8563 7.075 38.4443 6.683C39.0323 6.277 39.6553 6.074 40.3133 6.074C40.5793 6.074 40.7473 6.081 40.8173 6.095V9.686Z"/>
<path d="M53.1656 17.33H49.1756V11.114C49.1756 10.568 49.0496 10.176 48.7976 9.938C48.5596 9.686 48.2586 9.56 47.8946 9.56C47.6286 9.56 47.2996 9.7 46.9076 9.98C46.5296 10.26 46.2426 10.645 46.0466 11.135V17.33H42.0566V2H46.0466V7.922C46.4386 7.32 46.9496 6.865 47.5796 6.557C48.2236 6.235 48.9306 6.074 49.7006 6.074C50.4846 6.074 51.1076 6.207 51.5696 6.473C52.0316 6.725 52.3746 7.054 52.5986 7.46C52.8226 7.866 52.9696 8.3 53.0396 8.762C53.1236 9.224 53.1656 9.658 53.1656 10.064V17.33Z"/>
<path d="M55.0996 5.36V2H59.0896V5.36H55.0996ZM55.0996 17.33V6.284H59.0896V17.33H55.0996Z"/>
<path d="M78.9164 17.33H74.9264V11.114C74.9264 10.568 74.8144 10.176 74.5904 9.938C74.3804 9.686 74.1214 9.56 73.8134 9.56C73.5054 9.56 73.1694 9.707 72.8054 10.001C72.4414 10.295 72.1754 10.673 72.0074 11.135V17.33H68.0174V11.114C68.0174 10.568 67.9054 10.176 67.6814 9.938C67.4714 9.686 67.2124 9.56 66.9044 9.56C66.5964 9.56 66.2604 9.707 65.8964 10.001C65.5324 10.295 65.2664 10.673 65.0984 11.135V17.33H61.1084V6.284H64.6994V7.922C65.4974 6.69 66.8484 6.074 68.7524 6.074C69.6624 6.074 70.3484 6.27 70.8104 6.662C71.2724 7.054 71.5804 7.495 71.7344 7.985C72.1264 7.383 72.6654 6.914 73.3514 6.578C74.0374 6.242 74.8074 6.074 75.6614 6.074C76.3894 6.074 76.9704 6.207 77.4044 6.473C77.8384 6.739 78.1604 7.082 78.3704 7.502C78.5944 7.922 78.7414 8.363 78.8114 8.825C78.8814 9.273 78.9164 9.686 78.9164 10.064V17.33Z"/>
<path d="M86.2964 17.54C85.0084 17.54 83.9094 17.281 82.9994 16.763C82.1034 16.245 81.4174 15.559 80.9414 14.705C80.4794 13.851 80.2484 12.934 80.2484 11.954C80.2484 10.89 80.4794 9.917 80.9414 9.035C81.4034 8.139 82.0824 7.425 82.9784 6.893C83.8744 6.347 84.9804 6.074 86.2964 6.074C87.6124 6.074 88.7184 6.34 89.6144 6.872C90.5104 7.404 91.1894 8.104 91.6514 8.972C92.1134 9.84 92.3444 10.785 92.3444 11.807C92.3444 12.241 92.3094 12.647 92.2394 13.025H84.4904C84.5324 13.613 84.7494 14.04 85.1414 14.306C85.5334 14.558 85.9604 14.684 86.4224 14.684C86.8564 14.684 87.2624 14.586 87.6404 14.39C88.0324 14.194 88.2914 13.921 88.4174 13.571L91.7984 14.537C91.3504 15.419 90.6574 16.14 89.7194 16.7C88.7814 17.26 87.6404 17.54 86.2964 17.54ZM84.4064 10.631H88.0604C88.0044 10.099 87.8084 9.679 87.4724 9.371C87.1504 9.063 86.7374 8.909 86.2334 8.909C85.7294 8.909 85.3164 9.063 84.9944 9.371C84.6724 9.679 84.4764 10.099 84.4064 10.631Z"/>
<path d="M93.6963 17.33V13.466H96.9303V17.33H93.6963Z"/>
</mask>
<path d="M18.808 17.33H14.818V11.114C14.818 10.568 14.706 10.176 14.482 9.938C14.272 9.686 14.013 9.56 13.705 9.56C13.397 9.56 13.061 9.707 12.697 10.001C12.333 10.295 12.067 10.673 11.899 11.135V17.33H7.909V11.114C7.909 10.568 7.797 10.176 7.573 9.938C7.363 9.686 7.104 9.56 6.796 9.56C6.488 9.56 6.152 9.707 5.788 10.001C5.424 10.295 5.158 10.673 4.99 11.135V17.33H1V6.284H4.591V7.922C5.389 6.69 6.74 6.074 8.644 6.074C9.554 6.074 10.24 6.27 10.702 6.662C11.164 7.054 11.472 7.495 11.626 7.985C12.018 7.383 12.557 6.914 13.243 6.578C13.929 6.242 14.699 6.074 15.553 6.074C16.281 6.074 16.862 6.207 17.296 6.473C17.73 6.739 18.052 7.082 18.262 7.502C18.486 7.922 18.633 8.363 18.703 8.825C18.773 9.273 18.808 9.686 18.808 10.064V17.33Z" fill="black"/>
<path d="M20.14 13.991C20.14 13.249 20.343 12.598 20.749 12.038C21.155 11.464 21.715 11.016 22.429 10.694C23.157 10.372 23.983 10.211 24.907 10.211C25.803 10.211 26.545 10.351 27.133 10.631V10.295C27.133 9.777 26.979 9.392 26.671 9.14C26.377 8.888 25.894 8.762 25.222 8.762C24.606 8.762 24.025 8.867 23.479 9.077C22.947 9.273 22.387 9.567 21.799 9.959L20.644 7.481C22.1 6.543 23.759 6.074 25.621 6.074C27.371 6.074 28.722 6.473 29.674 7.271C30.64 8.055 31.123 9.224 31.123 10.778V12.92C31.123 13.298 31.179 13.564 31.291 13.718C31.403 13.858 31.599 13.942 31.879 13.97V17.33C31.557 17.4 31.249 17.449 30.955 17.477C30.675 17.519 30.423 17.54 30.199 17.54C29.485 17.54 28.939 17.414 28.561 17.162C28.197 16.896 27.959 16.511 27.847 16.007L27.763 15.608C26.755 16.896 25.502 17.54 24.004 17.54C23.276 17.54 22.618 17.386 22.03 17.078C21.442 16.77 20.98 16.35 20.644 15.818C20.308 15.272 20.14 14.663 20.14 13.991ZM26.608 14.264C26.958 14.026 27.133 13.767 27.133 13.487V12.668C26.909 12.584 26.65 12.514 26.356 12.458C26.076 12.402 25.824 12.374 25.6 12.374C25.124 12.374 24.718 12.493 24.382 12.731C24.06 12.969 23.899 13.27 23.899 13.634C23.899 13.942 24.018 14.194 24.256 14.39C24.508 14.586 24.823 14.684 25.201 14.684C25.719 14.684 26.188 14.544 26.608 14.264Z" fill="black"/>
<path d="M40.8173 9.686C40.0473 9.686 39.3473 9.77 38.7173 9.938C38.0873 10.106 37.6183 10.386 37.3103 10.778V17.33H33.3203V6.284H36.9743V8.384C37.3663 7.642 37.8563 7.075 38.4443 6.683C39.0323 6.277 39.6553 6.074 40.3133 6.074C40.5793 6.074 40.7473 6.081 40.8173 6.095V9.686Z" fill="black"/>
<path d="M53.1656 17.33H49.1756V11.114C49.1756 10.568 49.0496 10.176 48.7976 9.938C48.5596 9.686 48.2586 9.56 47.8946 9.56C47.6286 9.56 47.2996 9.7 46.9076 9.98C46.5296 10.26 46.2426 10.645 46.0466 11.135V17.33H42.0566V2H46.0466V7.922C46.4386 7.32 46.9496 6.865 47.5796 6.557C48.2236 6.235 48.9306 6.074 49.7006 6.074C50.4846 6.074 51.1076 6.207 51.5696 6.473C52.0316 6.725 52.3746 7.054 52.5986 7.46C52.8226 7.866 52.9696 8.3 53.0396 8.762C53.1236 9.224 53.1656 9.658 53.1656 10.064V17.33Z" fill="black"/>
<path d="M55.0996 5.36V2H59.0896V5.36H55.0996ZM55.0996 17.33V6.284H59.0896V17.33H55.0996Z" fill="black"/>
<path d="M78.9164 17.33H74.9264V11.114C74.9264 10.568 74.8144 10.176 74.5904 9.938C74.3804 9.686 74.1214 9.56 73.8134 9.56C73.5054 9.56 73.1694 9.707 72.8054 10.001C72.4414 10.295 72.1754 10.673 72.0074 11.135V17.33H68.0174V11.114C68.0174 10.568 67.9054 10.176 67.6814 9.938C67.4714 9.686 67.2124 9.56 66.9044 9.56C66.5964 9.56 66.2604 9.707 65.8964 10.001C65.5324 10.295 65.2664 10.673 65.0984 11.135V17.33H61.1084V6.284H64.6994V7.922C65.4974 6.69 66.8484 6.074 68.7524 6.074C69.6624 6.074 70.3484 6.27 70.8104 6.662C71.2724 7.054 71.5804 7.495 71.7344 7.985C72.1264 7.383 72.6654 6.914 73.3514 6.578C74.0374 6.242 74.8074 6.074 75.6614 6.074C76.3894 6.074 76.9704 6.207 77.4044 6.473C77.8384 6.739 78.1604 7.082 78.3704 7.502C78.5944 7.922 78.7414 8.363 78.8114 8.825C78.8814 9.273 78.9164 9.686 78.9164 10.064V17.33Z" fill="black"/>
<path d="M86.2964 17.54C85.0084 17.54 83.9094 17.281 82.9994 16.763C82.1034 16.245 81.4174 15.559 80.9414 14.705C80.4794 13.851 80.2484 12.934 80.2484 11.954C80.2484 10.89 80.4794 9.917 80.9414 9.035C81.4034 8.139 82.0824 7.425 82.9784 6.893C83.8744 6.347 84.9804 6.074 86.2964 6.074C87.6124 6.074 88.7184 6.34 89.6144 6.872C90.5104 7.404 91.1894 8.104 91.6514 8.972C92.1134 9.84 92.3444 10.785 92.3444 11.807C92.3444 12.241 92.3094 12.647 92.2394 13.025H84.4904C84.5324 13.613 84.7494 14.04 85.1414 14.306C85.5334 14.558 85.9604 14.684 86.4224 14.684C86.8564 14.684 87.2624 14.586 87.6404 14.39C88.0324 14.194 88.2914 13.921 88.4174 13.571L91.7984 14.537C91.3504 15.419 90.6574 16.14 89.7194 16.7C88.7814 17.26 87.6404 17.54 86.2964 17.54ZM84.4064 10.631H88.0604C88.0044 10.099 87.8084 9.679 87.4724 9.371C87.1504 9.063 86.7374 8.909 86.2334 8.909C85.7294 8.909 85.3164 9.063 84.9944 9.371C84.6724 9.679 84.4764 10.099 84.4064 10.631Z" fill="black"/>
<path d="M93.6963 17.33V13.466H96.9303V17.33H93.6963Z" fill="black"/>
<path d="M18.808 17.33H14.818V11.114C14.818 10.568 14.706 10.176 14.482 9.938C14.272 9.686 14.013 9.56 13.705 9.56C13.397 9.56 13.061 9.707 12.697 10.001C12.333 10.295 12.067 10.673 11.899 11.135V17.33H7.909V11.114C7.909 10.568 7.797 10.176 7.573 9.938C7.363 9.686 7.104 9.56 6.796 9.56C6.488 9.56 6.152 9.707 5.788 10.001C5.424 10.295 5.158 10.673 4.99 11.135V17.33H1V6.284H4.591V7.922C5.389 6.69 6.74 6.074 8.644 6.074C9.554 6.074 10.24 6.27 10.702 6.662C11.164 7.054 11.472 7.495 11.626 7.985C12.018 7.383 12.557 6.914 13.243 6.578C13.929 6.242 14.699 6.074 15.553 6.074C16.281 6.074 16.862 6.207 17.296 6.473C17.73 6.739 18.052 7.082 18.262 7.502C18.486 7.922 18.633 8.363 18.703 8.825C18.773 9.273 18.808 9.686 18.808 10.064V17.33Z" stroke="white" stroke-width="0.8" mask="url(#path-1-outside-1_66_34)"/>
<path d="M20.14 13.991C20.14 13.249 20.343 12.598 20.749 12.038C21.155 11.464 21.715 11.016 22.429 10.694C23.157 10.372 23.983 10.211 24.907 10.211C25.803 10.211 26.545 10.351 27.133 10.631V10.295C27.133 9.777 26.979 9.392 26.671 9.14C26.377 8.888 25.894 8.762 25.222 8.762C24.606 8.762 24.025 8.867 23.479 9.077C22.947 9.273 22.387 9.567 21.799 9.959L20.644 7.481C22.1 6.543 23.759 6.074 25.621 6.074C27.371 6.074 28.722 6.473 29.674 7.271C30.64 8.055 31.123 9.224 31.123 10.778V12.92C31.123 13.298 31.179 13.564 31.291 13.718C31.403 13.858 31.599 13.942 31.879 13.97V17.33C31.557 17.4 31.249 17.449 30.955 17.477C30.675 17.519 30.423 17.54 30.199 17.54C29.485 17.54 28.939 17.414 28.561 17.162C28.197 16.896 27.959 16.511 27.847 16.007L27.763 15.608C26.755 16.896 25.502 17.54 24.004 17.54C23.276 17.54 22.618 17.386 22.03 17.078C21.442 16.77 20.98 16.35 20.644 15.818C20.308 15.272 20.14 14.663 20.14 13.991ZM26.608 14.264C26.958 14.026 27.133 13.767 27.133 13.487V12.668C26.909 12.584 26.65 12.514 26.356 12.458C26.076 12.402 25.824 12.374 25.6 12.374C25.124 12.374 24.718 12.493 24.382 12.731C24.06 12.969 23.899 13.27 23.899 13.634C23.899 13.942 24.018 14.194 24.256 14.39C24.508 14.586 24.823 14.684 25.201 14.684C25.719 14.684 26.188 14.544 26.608 14.264Z" stroke="white" stroke-width="0.8" mask="url(#path-1-outside-1_66_34)"/>
<path d="M40.8173 9.686C40.0473 9.686 39.3473 9.77 38.7173 9.938C38.0873 10.106 37.6183 10.386 37.3103 10.778V17.33H33.3203V6.284H36.9743V8.384C37.3663 7.642 37.8563 7.075 38.4443 6.683C39.0323 6.277 39.6553 6.074 40.3133 6.074C40.5793 6.074 40.7473 6.081 40.8173 6.095V9.686Z" stroke="white" stroke-width="0.8" mask="url(#path-1-outside-1_66_34)"/>
<path d="M53.1656 17.33H49.1756V11.114C49.1756 10.568 49.0496 10.176 48.7976 9.938C48.5596 9.686 48.2586 9.56 47.8946 9.56C47.6286 9.56 47.2996 9.7 46.9076 9.98C46.5296 10.26 46.2426 10.645 46.0466 11.135V17.33H42.0566V2H46.0466V7.922C46.4386 7.32 46.9496 6.865 47.5796 6.557C48.2236 6.235 48.9306 6.074 49.7006 6.074C50.4846 6.074 51.1076 6.207 51.5696 6.473C52.0316 6.725 52.3746 7.054 52.5986 7.46C52.8226 7.866 52.9696 8.3 53.0396 8.762C53.1236 9.224 53.1656 9.658 53.1656 10.064V17.33Z" stroke="white" stroke-width="0.8" mask="url(#path-1-outside-1_66_34)"/>
<path d="M55.0996 5.36V2H59.0896V5.36H55.0996ZM55.0996 17.33V6.284H59.0896V17.33H55.0996Z" stroke="white" stroke-width="0.8" mask="url(#path-1-outside-1_66_34)"/>
<path d="M78.9164 17.33H74.9264V11.114C74.9264 10.568 74.8144 10.176 74.5904 9.938C74.3804 9.686 74.1214 9.56 73.8134 9.56C73.5054 9.56 73.1694 9.707 72.8054 10.001C72.4414 10.295 72.1754 10.673 72.0074 11.135V17.33H68.0174V11.114C68.0174 10.568 67.9054 10.176 67.6814 9.938C67.4714 9.686 67.2124 9.56 66.9044 9.56C66.5964 9.56 66.2604 9.707 65.8964 10.001C65.5324 10.295 65.2664 10.673 65.0984 11.135V17.33H61.1084V6.284H64.6994V7.922C65.4974 6.69 66.8484 6.074 68.7524 6.074C69.6624 6.074 70.3484 6.27 70.8104 6.662C71.2724 7.054 71.5804 7.495 71.7344 7.985C72.1264 7.383 72.6654 6.914 73.3514 6.578C74.0374 6.242 74.8074 6.074 75.6614 6.074C76.3894 6.074 76.9704 6.207 77.4044 6.473C77.8384 6.739 78.1604 7.082 78.3704 7.502C78.5944 7.922 78.7414 8.363 78.8114 8.825C78.8814 9.273 78.9164 9.686 78.9164 10.064V17.33Z" stroke="white" stroke-width="0.8" mask="url(#path-1-outside-1_66_34)"/>
<path d="M86.2964 17.54C85.0084 17.54 83.9094 17.281 82.9994 16.763C82.1034 16.245 81.4174 15.559 80.9414 14.705C80.4794 13.851 80.2484 12.934 80.2484 11.954C80.2484 10.89 80.4794 9.917 80.9414 9.035C81.4034 8.139 82.0824 7.425 82.9784 6.893C83.8744 6.347 84.9804 6.074 86.2964 6.074C87.6124 6.074 88.7184 6.34 89.6144 6.872C90.5104 7.404 91.1894 8.104 91.6514 8.972C92.1134 9.84 92.3444 10.785 92.3444 11.807C92.3444 12.241 92.3094 12.647 92.2394 13.025H84.4904C84.5324 13.613 84.7494 14.04 85.1414 14.306C85.5334 14.558 85.9604 14.684 86.4224 14.684C86.8564 14.684 87.2624 14.586 87.6404 14.39C88.0324 14.194 88.2914 13.921 88.4174 13.571L91.7984 14.537C91.3504 15.419 90.6574 16.14 89.7194 16.7C88.7814 17.26 87.6404 17.54 86.2964 17.54ZM84.4064 10.631H88.0604C88.0044 10.099 87.8084 9.679 87.4724 9.371C87.1504 9.063 86.7374 8.909 86.2334 8.909C85.7294 8.909 85.3164 9.063 84.9944 9.371C84.6724 9.679 84.4764 10.099 84.4064 10.631Z" stroke="white" stroke-width="0.8" mask="url(#path-1-outside-1_66_34)"/>
<path d="M93.6963 17.33V13.466H96.9303V17.33H93.6963Z" stroke="white" stroke-width="0.8" mask="url(#path-1-outside-1_66_34)"/>
<path d="M18.808 15.33H14.818V9.114C14.818 8.568 14.706 8.176 14.482 7.938C14.272 7.686 14.013 7.56 13.705 7.56C13.397 7.56 13.061 7.707 12.697 8.001C12.333 8.295 12.067 8.673 11.899 9.135V15.33H7.909V9.114C7.909 8.568 7.797 8.176 7.573 7.938C7.363 7.686 7.104 7.56 6.796 7.56C6.488 7.56 6.152 7.707 5.788 8.001C5.424 8.295 5.158 8.673 4.99 9.135V15.33H1V4.284H4.591V5.922C5.389 4.69 6.74 4.074 8.644 4.074C9.554 4.074 10.24 4.27 10.702 4.662C11.164 5.054 11.472 5.495 11.626 5.985C12.018 5.383 12.557 4.914 13.243 4.578C13.929 4.242 14.699 4.074 15.553 4.074C16.281 4.074 16.862 4.207 17.296 4.473C17.73 4.739 18.052 5.082 18.262 5.502C18.486 5.922 18.633 6.363 18.703 6.825C18.773 7.273 18.808 7.686 18.808 8.064V15.33Z" fill="white"/>
<path d="M20.14 11.991C20.14 11.249 20.343 10.598 20.749 10.038C21.155 9.464 21.715 9.016 22.429 8.694C23.157 8.372 23.983 8.211 24.907 8.211C25.803 8.211 26.545 8.351 27.133 8.631V8.295C27.133 7.777 26.979 7.392 26.671 7.14C26.377 6.888 25.894 6.762 25.222 6.762C24.606 6.762 24.025 6.867 23.479 7.077C22.947 7.273 22.387 7.567 21.799 7.959L20.644 5.481C22.1 4.543 23.759 4.074 25.621 4.074C27.371 4.074 28.722 4.473 29.674 5.271C30.64 6.055 31.123 7.224 31.123 8.778V10.92C31.123 11.298 31.179 11.564 31.291 11.718C31.403 11.858 31.599 11.942 31.879 11.97V15.33C31.557 15.4 31.249 15.449 30.955 15.477C30.675 15.519 30.423 15.54 30.199 15.54C29.485 15.54 28.939 15.414 28.561 15.162C28.197 14.896 27.959 14.511 27.847 14.007L27.763 13.608C26.755 14.896 25.502 15.54 24.004 15.54C23.276 15.54 22.618 15.386 22.03 15.078C21.442 14.77 20.98 14.35 20.644 13.818C20.308 13.272 20.14 12.663 20.14 11.991ZM26.608 12.264C26.958 12.026 27.133 11.767 27.133 11.487V10.668C26.909 10.584 26.65 10.514 26.356 10.458C26.076 10.402 25.824 10.374 25.6 10.374C25.124 10.374 24.718 10.493 24.382 10.731C24.06 10.969 23.899 11.27 23.899 11.634C23.899 11.942 24.018 12.194 24.256 12.39C24.508 12.586 24.823 12.684 25.201 12.684C25.719 12.684 26.188 12.544 26.608 12.264Z" fill="white"/>
<path d="M40.8173 7.686C40.0473 7.686 39.3473 7.77 38.7173 7.938C38.0873 8.106 37.6183 8.386 37.3103 8.778V15.33H33.3203V4.284H36.9743V6.384C37.3663 5.642 37.8563 5.075 38.4443 4.683C39.0323 4.277 39.6553 4.074 40.3133 4.074C40.5793 4.074 40.7473 4.081 40.8173 4.095V7.686Z" fill="white"/>
<path d="M53.1656 15.33H49.1756V9.114C49.1756 8.568 49.0496 8.176 48.7976 7.938C48.5596 7.686 48.2586 7.56 47.8946 7.56C47.6286 7.56 47.2996 7.7 46.9076 7.98C46.5296 8.26 46.2426 8.645 46.0466 9.135V15.33H42.0566V0H46.0466V5.922C46.4386 5.32 46.9496 4.865 47.5796 4.557C48.2236 4.235 48.9306 4.074 49.7006 4.074C50.4846 4.074 51.1076 4.207 51.5696 4.473C52.0316 4.725 52.3746 5.054 52.5986 5.46C52.8226 5.866 52.9696 6.3 53.0396 6.762C53.1236 7.224 53.1656 7.658 53.1656 8.064V15.33Z" fill="white"/>
<path d="M55.0996 3.36V0H59.0896V3.36H55.0996ZM55.0996 15.33V4.284H59.0896V15.33H55.0996Z" fill="white"/>
<path d="M78.9164 15.33H74.9264V9.114C74.9264 8.568 74.8144 8.176 74.5904 7.938C74.3804 7.686 74.1214 7.56 73.8134 7.56C73.5054 7.56 73.1694 7.707 72.8054 8.001C72.4414 8.295 72.1754 8.673 72.0074 9.135V15.33H68.0174V9.114C68.0174 8.568 67.9054 8.176 67.6814 7.938C67.4714 7.686 67.2124 7.56 66.9044 7.56C66.5964 7.56 66.2604 7.707 65.8964 8.001C65.5324 8.295 65.2664 8.673 65.0984 9.135V15.33H61.1084V4.284H64.6994V5.922C65.4974 4.69 66.8484 4.074 68.7524 4.074C69.6624 4.074 70.3484 4.27 70.8104 4.662C71.2724 5.054 71.5804 5.495 71.7344 5.985C72.1264 5.383 72.6654 4.914 73.3514 4.578C74.0374 4.242 74.8074 4.074 75.6614 4.074C76.3894 4.074 76.9704 4.207 77.4044 4.473C77.8384 4.739 78.1604 5.082 78.3704 5.502C78.5944 5.922 78.7414 6.363 78.8114 6.825C78.8814 7.273 78.9164 7.686 78.9164 8.064V15.33Z" fill="white"/>
<path d="M86.2964 15.54C85.0084 15.54 83.9094 15.281 82.9994 14.763C82.1034 14.245 81.4174 13.559 80.9414 12.705C80.4794 11.851 80.2484 10.934 80.2484 9.954C80.2484 8.89 80.4794 7.917 80.9414 7.035C81.4034 6.139 82.0824 5.425 82.9784 4.893C83.8744 4.347 84.9804 4.074 86.2964 4.074C87.6124 4.074 88.7184 4.34 89.6144 4.872C90.5104 5.404 91.1894 6.104 91.6514 6.972C92.1134 7.84 92.3444 8.785 92.3444 9.807C92.3444 10.241 92.3094 10.647 92.2394 11.025H84.4904C84.5324 11.613 84.7494 12.04 85.1414 12.306C85.5334 12.558 85.9604 12.684 86.4224 12.684C86.8564 12.684 87.2624 12.586 87.6404 12.39C88.0324 12.194 88.2914 11.921 88.4174 11.571L91.7984 12.537C91.3504 13.419 90.6574 14.14 89.7194 14.7C88.7814 15.26 87.6404 15.54 86.2964 15.54ZM84.4064 8.631H88.0604C88.0044 8.099 87.8084 7.679 87.4724 7.371C87.1504 7.063 86.7374 6.909 86.2334 6.909C85.7294 6.909 85.3164 7.063 84.9944 7.371C84.6724 7.679 84.4764 8.099 84.4064 8.631Z" fill="white"/>
<path d="M93.6963 15.33V11.466H96.9303V15.33H93.6963Z" fill="white"/>
</svg>
