<svg width="98" height="19" viewBox="0 0 98 19" fill="none" xmlns="http://www.w3.org/2000/svg">
<mask id="path-1-outside-1_66_31" maskUnits="userSpaceOnUse" x="0" y="2" width="98" height="17" fill="black">
<rect fill="white" y="2" width="98" height="17"/>
<path d="M18.808 18.33H14.818V12.114C14.818 11.568 14.706 11.176 14.482 10.938C14.272 10.686 14.013 10.56 13.705 10.56C13.397 10.56 13.061 10.707 12.697 11.001C12.333 11.295 12.067 11.673 11.899 12.135V18.33H7.909V12.114C7.909 11.568 7.797 11.176 7.573 10.938C7.363 10.686 7.104 10.56 6.796 10.56C6.488 10.56 6.152 10.707 5.788 11.001C5.424 11.295 5.158 11.673 4.99 12.135V18.33H1V7.284H4.591V8.922C5.389 7.69 6.74 7.074 8.644 7.074C9.554 7.074 10.24 7.27 10.702 7.662C11.164 8.054 11.472 8.495 11.626 8.985C12.018 8.383 12.557 7.914 13.243 7.578C13.929 7.242 14.699 7.074 15.553 7.074C16.281 7.074 16.862 7.207 17.296 7.473C17.73 7.739 18.052 8.082 18.262 8.502C18.486 8.922 18.633 9.363 18.703 9.825C18.773 10.273 18.808 10.686 18.808 11.064V18.33Z"/>
<path d="M20.14 14.991C20.14 14.249 20.343 13.598 20.749 13.038C21.155 12.464 21.715 12.016 22.429 11.694C23.157 11.372 23.983 11.211 24.907 11.211C25.803 11.211 26.545 11.351 27.133 11.631V11.295C27.133 10.777 26.979 10.392 26.671 10.14C26.377 9.888 25.894 9.762 25.222 9.762C24.606 9.762 24.025 9.867 23.479 10.077C22.947 10.273 22.387 10.567 21.799 10.959L20.644 8.481C22.1 7.543 23.759 7.074 25.621 7.074C27.371 7.074 28.722 7.473 29.674 8.271C30.64 9.055 31.123 10.224 31.123 11.778V13.92C31.123 14.298 31.179 14.564 31.291 14.718C31.403 14.858 31.599 14.942 31.879 14.97V18.33C31.557 18.4 31.249 18.449 30.955 18.477C30.675 18.519 30.423 18.54 30.199 18.54C29.485 18.54 28.939 18.414 28.561 18.162C28.197 17.896 27.959 17.511 27.847 17.007L27.763 16.608C26.755 17.896 25.502 18.54 24.004 18.54C23.276 18.54 22.618 18.386 22.03 18.078C21.442 17.77 20.98 17.35 20.644 16.818C20.308 16.272 20.14 15.663 20.14 14.991ZM26.608 15.264C26.958 15.026 27.133 14.767 27.133 14.487V13.668C26.909 13.584 26.65 13.514 26.356 13.458C26.076 13.402 25.824 13.374 25.6 13.374C25.124 13.374 24.718 13.493 24.382 13.731C24.06 13.969 23.899 14.27 23.899 14.634C23.899 14.942 24.018 15.194 24.256 15.39C24.508 15.586 24.823 15.684 25.201 15.684C25.719 15.684 26.188 15.544 26.608 15.264Z"/>
<path d="M40.8173 10.686C40.0473 10.686 39.3473 10.77 38.7173 10.938C38.0873 11.106 37.6183 11.386 37.3103 11.778V18.33H33.3203V7.284H36.9743V9.384C37.3663 8.642 37.8563 8.075 38.4443 7.683C39.0323 7.277 39.6553 7.074 40.3133 7.074C40.5793 7.074 40.7473 7.081 40.8173 7.095V10.686Z"/>
<path d="M53.1656 18.33H49.1756V12.114C49.1756 11.568 49.0496 11.176 48.7976 10.938C48.5596 10.686 48.2586 10.56 47.8946 10.56C47.6286 10.56 47.2996 10.7 46.9076 10.98C46.5296 11.26 46.2426 11.645 46.0466 12.135V18.33H42.0566V3H46.0466V8.922C46.4386 8.32 46.9496 7.865 47.5796 7.557C48.2236 7.235 48.9306 7.074 49.7006 7.074C50.4846 7.074 51.1076 7.207 51.5696 7.473C52.0316 7.725 52.3746 8.054 52.5986 8.46C52.8226 8.866 52.9696 9.3 53.0396 9.762C53.1236 10.224 53.1656 10.658 53.1656 11.064V18.33Z"/>
<path d="M55.0996 6.36V3H59.0896V6.36H55.0996ZM55.0996 18.33V7.284H59.0896V18.33H55.0996Z"/>
<path d="M78.9164 18.33H74.9264V12.114C74.9264 11.568 74.8144 11.176 74.5904 10.938C74.3804 10.686 74.1214 10.56 73.8134 10.56C73.5054 10.56 73.1694 10.707 72.8054 11.001C72.4414 11.295 72.1754 11.673 72.0074 12.135V18.33H68.0174V12.114C68.0174 11.568 67.9054 11.176 67.6814 10.938C67.4714 10.686 67.2124 10.56 66.9044 10.56C66.5964 10.56 66.2604 10.707 65.8964 11.001C65.5324 11.295 65.2664 11.673 65.0984 12.135V18.33H61.1084V7.284H64.6994V8.922C65.4974 7.69 66.8484 7.074 68.7524 7.074C69.6624 7.074 70.3484 7.27 70.8104 7.662C71.2724 8.054 71.5804 8.495 71.7344 8.985C72.1264 8.383 72.6654 7.914 73.3514 7.578C74.0374 7.242 74.8074 7.074 75.6614 7.074C76.3894 7.074 76.9704 7.207 77.4044 7.473C77.8384 7.739 78.1604 8.082 78.3704 8.502C78.5944 8.922 78.7414 9.363 78.8114 9.825C78.8814 10.273 78.9164 10.686 78.9164 11.064V18.33Z"/>
<path d="M86.2964 18.54C85.0084 18.54 83.9094 18.281 82.9994 17.763C82.1034 17.245 81.4174 16.559 80.9414 15.705C80.4794 14.851 80.2484 13.934 80.2484 12.954C80.2484 11.89 80.4794 10.917 80.9414 10.035C81.4034 9.139 82.0824 8.425 82.9784 7.893C83.8744 7.347 84.9804 7.074 86.2964 7.074C87.6124 7.074 88.7184 7.34 89.6144 7.872C90.5104 8.404 91.1894 9.104 91.6514 9.972C92.1134 10.84 92.3444 11.785 92.3444 12.807C92.3444 13.241 92.3094 13.647 92.2394 14.025H84.4904C84.5324 14.613 84.7494 15.04 85.1414 15.306C85.5334 15.558 85.9604 15.684 86.4224 15.684C86.8564 15.684 87.2624 15.586 87.6404 15.39C88.0324 15.194 88.2914 14.921 88.4174 14.571L91.7984 15.537C91.3504 16.419 90.6574 17.14 89.7194 17.7C88.7814 18.26 87.6404 18.54 86.2964 18.54ZM84.4064 11.631H88.0604C88.0044 11.099 87.8084 10.679 87.4724 10.371C87.1504 10.063 86.7374 9.909 86.2334 9.909C85.7294 9.909 85.3164 10.063 84.9944 10.371C84.6724 10.679 84.4764 11.099 84.4064 11.631Z"/>
<path d="M93.6963 18.33V14.466H96.9303V18.33H93.6963Z"/>
</mask>
<path d="M18.808 18.33H14.818V12.114C14.818 11.568 14.706 11.176 14.482 10.938C14.272 10.686 14.013 10.56 13.705 10.56C13.397 10.56 13.061 10.707 12.697 11.001C12.333 11.295 12.067 11.673 11.899 12.135V18.33H7.909V12.114C7.909 11.568 7.797 11.176 7.573 10.938C7.363 10.686 7.104 10.56 6.796 10.56C6.488 10.56 6.152 10.707 5.788 11.001C5.424 11.295 5.158 11.673 4.99 12.135V18.33H1V7.284H4.591V8.922C5.389 7.69 6.74 7.074 8.644 7.074C9.554 7.074 10.24 7.27 10.702 7.662C11.164 8.054 11.472 8.495 11.626 8.985C12.018 8.383 12.557 7.914 13.243 7.578C13.929 7.242 14.699 7.074 15.553 7.074C16.281 7.074 16.862 7.207 17.296 7.473C17.73 7.739 18.052 8.082 18.262 8.502C18.486 8.922 18.633 9.363 18.703 9.825C18.773 10.273 18.808 10.686 18.808 11.064V18.33Z" fill="black"/>
<path d="M20.14 14.991C20.14 14.249 20.343 13.598 20.749 13.038C21.155 12.464 21.715 12.016 22.429 11.694C23.157 11.372 23.983 11.211 24.907 11.211C25.803 11.211 26.545 11.351 27.133 11.631V11.295C27.133 10.777 26.979 10.392 26.671 10.14C26.377 9.888 25.894 9.762 25.222 9.762C24.606 9.762 24.025 9.867 23.479 10.077C22.947 10.273 22.387 10.567 21.799 10.959L20.644 8.481C22.1 7.543 23.759 7.074 25.621 7.074C27.371 7.074 28.722 7.473 29.674 8.271C30.64 9.055 31.123 10.224 31.123 11.778V13.92C31.123 14.298 31.179 14.564 31.291 14.718C31.403 14.858 31.599 14.942 31.879 14.97V18.33C31.557 18.4 31.249 18.449 30.955 18.477C30.675 18.519 30.423 18.54 30.199 18.54C29.485 18.54 28.939 18.414 28.561 18.162C28.197 17.896 27.959 17.511 27.847 17.007L27.763 16.608C26.755 17.896 25.502 18.54 24.004 18.54C23.276 18.54 22.618 18.386 22.03 18.078C21.442 17.77 20.98 17.35 20.644 16.818C20.308 16.272 20.14 15.663 20.14 14.991ZM26.608 15.264C26.958 15.026 27.133 14.767 27.133 14.487V13.668C26.909 13.584 26.65 13.514 26.356 13.458C26.076 13.402 25.824 13.374 25.6 13.374C25.124 13.374 24.718 13.493 24.382 13.731C24.06 13.969 23.899 14.27 23.899 14.634C23.899 14.942 24.018 15.194 24.256 15.39C24.508 15.586 24.823 15.684 25.201 15.684C25.719 15.684 26.188 15.544 26.608 15.264Z" fill="black"/>
<path d="M40.8173 10.686C40.0473 10.686 39.3473 10.77 38.7173 10.938C38.0873 11.106 37.6183 11.386 37.3103 11.778V18.33H33.3203V7.284H36.9743V9.384C37.3663 8.642 37.8563 8.075 38.4443 7.683C39.0323 7.277 39.6553 7.074 40.3133 7.074C40.5793 7.074 40.7473 7.081 40.8173 7.095V10.686Z" fill="black"/>
<path d="M53.1656 18.33H49.1756V12.114C49.1756 11.568 49.0496 11.176 48.7976 10.938C48.5596 10.686 48.2586 10.56 47.8946 10.56C47.6286 10.56 47.2996 10.7 46.9076 10.98C46.5296 11.26 46.2426 11.645 46.0466 12.135V18.33H42.0566V3H46.0466V8.922C46.4386 8.32 46.9496 7.865 47.5796 7.557C48.2236 7.235 48.9306 7.074 49.7006 7.074C50.4846 7.074 51.1076 7.207 51.5696 7.473C52.0316 7.725 52.3746 8.054 52.5986 8.46C52.8226 8.866 52.9696 9.3 53.0396 9.762C53.1236 10.224 53.1656 10.658 53.1656 11.064V18.33Z" fill="black"/>
<path d="M55.0996 6.36V3H59.0896V6.36H55.0996ZM55.0996 18.33V7.284H59.0896V18.33H55.0996Z" fill="black"/>
<path d="M78.9164 18.33H74.9264V12.114C74.9264 11.568 74.8144 11.176 74.5904 10.938C74.3804 10.686 74.1214 10.56 73.8134 10.56C73.5054 10.56 73.1694 10.707 72.8054 11.001C72.4414 11.295 72.1754 11.673 72.0074 12.135V18.33H68.0174V12.114C68.0174 11.568 67.9054 11.176 67.6814 10.938C67.4714 10.686 67.2124 10.56 66.9044 10.56C66.5964 10.56 66.2604 10.707 65.8964 11.001C65.5324 11.295 65.2664 11.673 65.0984 12.135V18.33H61.1084V7.284H64.6994V8.922C65.4974 7.69 66.8484 7.074 68.7524 7.074C69.6624 7.074 70.3484 7.27 70.8104 7.662C71.2724 8.054 71.5804 8.495 71.7344 8.985C72.1264 8.383 72.6654 7.914 73.3514 7.578C74.0374 7.242 74.8074 7.074 75.6614 7.074C76.3894 7.074 76.9704 7.207 77.4044 7.473C77.8384 7.739 78.1604 8.082 78.3704 8.502C78.5944 8.922 78.7414 9.363 78.8114 9.825C78.8814 10.273 78.9164 10.686 78.9164 11.064V18.33Z" fill="black"/>
<path d="M86.2964 18.54C85.0084 18.54 83.9094 18.281 82.9994 17.763C82.1034 17.245 81.4174 16.559 80.9414 15.705C80.4794 14.851 80.2484 13.934 80.2484 12.954C80.2484 11.89 80.4794 10.917 80.9414 10.035C81.4034 9.139 82.0824 8.425 82.9784 7.893C83.8744 7.347 84.9804 7.074 86.2964 7.074C87.6124 7.074 88.7184 7.34 89.6144 7.872C90.5104 8.404 91.1894 9.104 91.6514 9.972C92.1134 10.84 92.3444 11.785 92.3444 12.807C92.3444 13.241 92.3094 13.647 92.2394 14.025H84.4904C84.5324 14.613 84.7494 15.04 85.1414 15.306C85.5334 15.558 85.9604 15.684 86.4224 15.684C86.8564 15.684 87.2624 15.586 87.6404 15.39C88.0324 15.194 88.2914 14.921 88.4174 14.571L91.7984 15.537C91.3504 16.419 90.6574 17.14 89.7194 17.7C88.7814 18.26 87.6404 18.54 86.2964 18.54ZM84.4064 11.631H88.0604C88.0044 11.099 87.8084 10.679 87.4724 10.371C87.1504 10.063 86.7374 9.909 86.2334 9.909C85.7294 9.909 85.3164 10.063 84.9944 10.371C84.6724 10.679 84.4764 11.099 84.4064 11.631Z" fill="black"/>
<path d="M93.6963 18.33V14.466H96.9303V18.33H93.6963Z" fill="black"/>
<path d="M18.808 18.33H14.818V12.114C14.818 11.568 14.706 11.176 14.482 10.938C14.272 10.686 14.013 10.56 13.705 10.56C13.397 10.56 13.061 10.707 12.697 11.001C12.333 11.295 12.067 11.673 11.899 12.135V18.33H7.909V12.114C7.909 11.568 7.797 11.176 7.573 10.938C7.363 10.686 7.104 10.56 6.796 10.56C6.488 10.56 6.152 10.707 5.788 11.001C5.424 11.295 5.158 11.673 4.99 12.135V18.33H1V7.284H4.591V8.922C5.389 7.69 6.74 7.074 8.644 7.074C9.554 7.074 10.24 7.27 10.702 7.662C11.164 8.054 11.472 8.495 11.626 8.985C12.018 8.383 12.557 7.914 13.243 7.578C13.929 7.242 14.699 7.074 15.553 7.074C16.281 7.074 16.862 7.207 17.296 7.473C17.73 7.739 18.052 8.082 18.262 8.502C18.486 8.922 18.633 9.363 18.703 9.825C18.773 10.273 18.808 10.686 18.808 11.064V18.33Z" stroke="white" stroke-width="0.8" mask="url(#path-1-outside-1_66_31)"/>
<path d="M20.14 14.991C20.14 14.249 20.343 13.598 20.749 13.038C21.155 12.464 21.715 12.016 22.429 11.694C23.157 11.372 23.983 11.211 24.907 11.211C25.803 11.211 26.545 11.351 27.133 11.631V11.295C27.133 10.777 26.979 10.392 26.671 10.14C26.377 9.888 25.894 9.762 25.222 9.762C24.606 9.762 24.025 9.867 23.479 10.077C22.947 10.273 22.387 10.567 21.799 10.959L20.644 8.481C22.1 7.543 23.759 7.074 25.621 7.074C27.371 7.074 28.722 7.473 29.674 8.271C30.64 9.055 31.123 10.224 31.123 11.778V13.92C31.123 14.298 31.179 14.564 31.291 14.718C31.403 14.858 31.599 14.942 31.879 14.97V18.33C31.557 18.4 31.249 18.449 30.955 18.477C30.675 18.519 30.423 18.54 30.199 18.54C29.485 18.54 28.939 18.414 28.561 18.162C28.197 17.896 27.959 17.511 27.847 17.007L27.763 16.608C26.755 17.896 25.502 18.54 24.004 18.54C23.276 18.54 22.618 18.386 22.03 18.078C21.442 17.77 20.98 17.35 20.644 16.818C20.308 16.272 20.14 15.663 20.14 14.991ZM26.608 15.264C26.958 15.026 27.133 14.767 27.133 14.487V13.668C26.909 13.584 26.65 13.514 26.356 13.458C26.076 13.402 25.824 13.374 25.6 13.374C25.124 13.374 24.718 13.493 24.382 13.731C24.06 13.969 23.899 14.27 23.899 14.634C23.899 14.942 24.018 15.194 24.256 15.39C24.508 15.586 24.823 15.684 25.201 15.684C25.719 15.684 26.188 15.544 26.608 15.264Z" stroke="white" stroke-width="0.8" mask="url(#path-1-outside-1_66_31)"/>
<path d="M40.8173 10.686C40.0473 10.686 39.3473 10.77 38.7173 10.938C38.0873 11.106 37.6183 11.386 37.3103 11.778V18.33H33.3203V7.284H36.9743V9.384C37.3663 8.642 37.8563 8.075 38.4443 7.683C39.0323 7.277 39.6553 7.074 40.3133 7.074C40.5793 7.074 40.7473 7.081 40.8173 7.095V10.686Z" stroke="white" stroke-width="0.8" mask="url(#path-1-outside-1_66_31)"/>
<path d="M53.1656 18.33H49.1756V12.114C49.1756 11.568 49.0496 11.176 48.7976 10.938C48.5596 10.686 48.2586 10.56 47.8946 10.56C47.6286 10.56 47.2996 10.7 46.9076 10.98C46.5296 11.26 46.2426 11.645 46.0466 12.135V18.33H42.0566V3H46.0466V8.922C46.4386 8.32 46.9496 7.865 47.5796 7.557C48.2236 7.235 48.9306 7.074 49.7006 7.074C50.4846 7.074 51.1076 7.207 51.5696 7.473C52.0316 7.725 52.3746 8.054 52.5986 8.46C52.8226 8.866 52.9696 9.3 53.0396 9.762C53.1236 10.224 53.1656 10.658 53.1656 11.064V18.33Z" stroke="white" stroke-width="0.8" mask="url(#path-1-outside-1_66_31)"/>
<path d="M55.0996 6.36V3H59.0896V6.36H55.0996ZM55.0996 18.33V7.284H59.0896V18.33H55.0996Z" stroke="white" stroke-width="0.8" mask="url(#path-1-outside-1_66_31)"/>
<path d="M78.9164 18.33H74.9264V12.114C74.9264 11.568 74.8144 11.176 74.5904 10.938C74.3804 10.686 74.1214 10.56 73.8134 10.56C73.5054 10.56 73.1694 10.707 72.8054 11.001C72.4414 11.295 72.1754 11.673 72.0074 12.135V18.33H68.0174V12.114C68.0174 11.568 67.9054 11.176 67.6814 10.938C67.4714 10.686 67.2124 10.56 66.9044 10.56C66.5964 10.56 66.2604 10.707 65.8964 11.001C65.5324 11.295 65.2664 11.673 65.0984 12.135V18.33H61.1084V7.284H64.6994V8.922C65.4974 7.69 66.8484 7.074 68.7524 7.074C69.6624 7.074 70.3484 7.27 70.8104 7.662C71.2724 8.054 71.5804 8.495 71.7344 8.985C72.1264 8.383 72.6654 7.914 73.3514 7.578C74.0374 7.242 74.8074 7.074 75.6614 7.074C76.3894 7.074 76.9704 7.207 77.4044 7.473C77.8384 7.739 78.1604 8.082 78.3704 8.502C78.5944 8.922 78.7414 9.363 78.8114 9.825C78.8814 10.273 78.9164 10.686 78.9164 11.064V18.33Z" stroke="white" stroke-width="0.8" mask="url(#path-1-outside-1_66_31)"/>
<path d="M86.2964 18.54C85.0084 18.54 83.9094 18.281 82.9994 17.763C82.1034 17.245 81.4174 16.559 80.9414 15.705C80.4794 14.851 80.2484 13.934 80.2484 12.954C80.2484 11.89 80.4794 10.917 80.9414 10.035C81.4034 9.139 82.0824 8.425 82.9784 7.893C83.8744 7.347 84.9804 7.074 86.2964 7.074C87.6124 7.074 88.7184 7.34 89.6144 7.872C90.5104 8.404 91.1894 9.104 91.6514 9.972C92.1134 10.84 92.3444 11.785 92.3444 12.807C92.3444 13.241 92.3094 13.647 92.2394 14.025H84.4904C84.5324 14.613 84.7494 15.04 85.1414 15.306C85.5334 15.558 85.9604 15.684 86.4224 15.684C86.8564 15.684 87.2624 15.586 87.6404 15.39C88.0324 15.194 88.2914 14.921 88.4174 14.571L91.7984 15.537C91.3504 16.419 90.6574 17.14 89.7194 17.7C88.7814 18.26 87.6404 18.54 86.2964 18.54ZM84.4064 11.631H88.0604C88.0044 11.099 87.8084 10.679 87.4724 10.371C87.1504 10.063 86.7374 9.909 86.2334 9.909C85.7294 9.909 85.3164 10.063 84.9944 10.371C84.6724 10.679 84.4764 11.099 84.4064 11.631Z" stroke="white" stroke-width="0.8" mask="url(#path-1-outside-1_66_31)"/>
<path d="M93.6963 18.33V14.466H96.9303V18.33H93.6963Z" stroke="white" stroke-width="0.8" mask="url(#path-1-outside-1_66_31)"/>
<mask id="path-2-outside-2_66_31" maskUnits="userSpaceOnUse" x="0" y="0" width="98" height="17" fill="black">
<rect fill="white" width="98" height="17"/>
<path d="M18.808 16.33H14.818V10.114C14.818 9.568 14.706 9.176 14.482 8.938C14.272 8.686 14.013 8.56 13.705 8.56C13.397 8.56 13.061 8.707 12.697 9.001C12.333 9.295 12.067 9.673 11.899 10.135V16.33H7.909V10.114C7.909 9.568 7.797 9.176 7.573 8.938C7.363 8.686 7.104 8.56 6.796 8.56C6.488 8.56 6.152 8.707 5.788 9.001C5.424 9.295 5.158 9.673 4.99 10.135V16.33H1V5.284H4.591V6.922C5.389 5.69 6.74 5.074 8.644 5.074C9.554 5.074 10.24 5.27 10.702 5.662C11.164 6.054 11.472 6.495 11.626 6.985C12.018 6.383 12.557 5.914 13.243 5.578C13.929 5.242 14.699 5.074 15.553 5.074C16.281 5.074 16.862 5.207 17.296 5.473C17.73 5.739 18.052 6.082 18.262 6.502C18.486 6.922 18.633 7.363 18.703 7.825C18.773 8.273 18.808 8.686 18.808 9.064V16.33Z"/>
<path d="M20.14 12.991C20.14 12.249 20.343 11.598 20.749 11.038C21.155 10.464 21.715 10.016 22.429 9.694C23.157 9.372 23.983 9.211 24.907 9.211C25.803 9.211 26.545 9.351 27.133 9.631V9.295C27.133 8.777 26.979 8.392 26.671 8.14C26.377 7.888 25.894 7.762 25.222 7.762C24.606 7.762 24.025 7.867 23.479 8.077C22.947 8.273 22.387 8.567 21.799 8.959L20.644 6.481C22.1 5.543 23.759 5.074 25.621 5.074C27.371 5.074 28.722 5.473 29.674 6.271C30.64 7.055 31.123 8.224 31.123 9.778V11.92C31.123 12.298 31.179 12.564 31.291 12.718C31.403 12.858 31.599 12.942 31.879 12.97V16.33C31.557 16.4 31.249 16.449 30.955 16.477C30.675 16.519 30.423 16.54 30.199 16.54C29.485 16.54 28.939 16.414 28.561 16.162C28.197 15.896 27.959 15.511 27.847 15.007L27.763 14.608C26.755 15.896 25.502 16.54 24.004 16.54C23.276 16.54 22.618 16.386 22.03 16.078C21.442 15.77 20.98 15.35 20.644 14.818C20.308 14.272 20.14 13.663 20.14 12.991ZM26.608 13.264C26.958 13.026 27.133 12.767 27.133 12.487V11.668C26.909 11.584 26.65 11.514 26.356 11.458C26.076 11.402 25.824 11.374 25.6 11.374C25.124 11.374 24.718 11.493 24.382 11.731C24.06 11.969 23.899 12.27 23.899 12.634C23.899 12.942 24.018 13.194 24.256 13.39C24.508 13.586 24.823 13.684 25.201 13.684C25.719 13.684 26.188 13.544 26.608 13.264Z"/>
<path d="M40.8173 8.686C40.0473 8.686 39.3473 8.77 38.7173 8.938C38.0873 9.106 37.6183 9.386 37.3103 9.778V16.33H33.3203V5.284H36.9743V7.384C37.3663 6.642 37.8563 6.075 38.4443 5.683C39.0323 5.277 39.6553 5.074 40.3133 5.074C40.5793 5.074 40.7473 5.081 40.8173 5.095V8.686Z"/>
<path d="M53.1656 16.33H49.1756V10.114C49.1756 9.568 49.0496 9.176 48.7976 8.938C48.5596 8.686 48.2586 8.56 47.8946 8.56C47.6286 8.56 47.2996 8.7 46.9076 8.98C46.5296 9.26 46.2426 9.645 46.0466 10.135V16.33H42.0566V1H46.0466V6.922C46.4386 6.32 46.9496 5.865 47.5796 5.557C48.2236 5.235 48.9306 5.074 49.7006 5.074C50.4846 5.074 51.1076 5.207 51.5696 5.473C52.0316 5.725 52.3746 6.054 52.5986 6.46C52.8226 6.866 52.9696 7.3 53.0396 7.762C53.1236 8.224 53.1656 8.658 53.1656 9.064V16.33Z"/>
<path d="M55.0996 4.36V1H59.0896V4.36H55.0996ZM55.0996 16.33V5.284H59.0896V16.33H55.0996Z"/>
<path d="M78.9164 16.33H74.9264V10.114C74.9264 9.568 74.8144 9.176 74.5904 8.938C74.3804 8.686 74.1214 8.56 73.8134 8.56C73.5054 8.56 73.1694 8.707 72.8054 9.001C72.4414 9.295 72.1754 9.673 72.0074 10.135V16.33H68.0174V10.114C68.0174 9.568 67.9054 9.176 67.6814 8.938C67.4714 8.686 67.2124 8.56 66.9044 8.56C66.5964 8.56 66.2604 8.707 65.8964 9.001C65.5324 9.295 65.2664 9.673 65.0984 10.135V16.33H61.1084V5.284H64.6994V6.922C65.4974 5.69 66.8484 5.074 68.7524 5.074C69.6624 5.074 70.3484 5.27 70.8104 5.662C71.2724 6.054 71.5804 6.495 71.7344 6.985C72.1264 6.383 72.6654 5.914 73.3514 5.578C74.0374 5.242 74.8074 5.074 75.6614 5.074C76.3894 5.074 76.9704 5.207 77.4044 5.473C77.8384 5.739 78.1604 6.082 78.3704 6.502C78.5944 6.922 78.7414 7.363 78.8114 7.825C78.8814 8.273 78.9164 8.686 78.9164 9.064V16.33Z"/>
<path d="M86.2964 16.54C85.0084 16.54 83.9094 16.281 82.9994 15.763C82.1034 15.245 81.4174 14.559 80.9414 13.705C80.4794 12.851 80.2484 11.934 80.2484 10.954C80.2484 9.89 80.4794 8.917 80.9414 8.035C81.4034 7.139 82.0824 6.425 82.9784 5.893C83.8744 5.347 84.9804 5.074 86.2964 5.074C87.6124 5.074 88.7184 5.34 89.6144 5.872C90.5104 6.404 91.1894 7.104 91.6514 7.972C92.1134 8.84 92.3444 9.785 92.3444 10.807C92.3444 11.241 92.3094 11.647 92.2394 12.025H84.4904C84.5324 12.613 84.7494 13.04 85.1414 13.306C85.5334 13.558 85.9604 13.684 86.4224 13.684C86.8564 13.684 87.2624 13.586 87.6404 13.39C88.0324 13.194 88.2914 12.921 88.4174 12.571L91.7984 13.537C91.3504 14.419 90.6574 15.14 89.7194 15.7C88.7814 16.26 87.6404 16.54 86.2964 16.54ZM84.4064 9.631H88.0604C88.0044 9.099 87.8084 8.679 87.4724 8.371C87.1504 8.063 86.7374 7.909 86.2334 7.909C85.7294 7.909 85.3164 8.063 84.9944 8.371C84.6724 8.679 84.4764 9.099 84.4064 9.631Z"/>
<path d="M93.6963 16.33V12.466H96.9303V16.33H93.6963Z"/>
</mask>
<path d="M18.808 16.33H14.818V10.114C14.818 9.568 14.706 9.176 14.482 8.938C14.272 8.686 14.013 8.56 13.705 8.56C13.397 8.56 13.061 8.707 12.697 9.001C12.333 9.295 12.067 9.673 11.899 10.135V16.33H7.909V10.114C7.909 9.568 7.797 9.176 7.573 8.938C7.363 8.686 7.104 8.56 6.796 8.56C6.488 8.56 6.152 8.707 5.788 9.001C5.424 9.295 5.158 9.673 4.99 10.135V16.33H1V5.284H4.591V6.922C5.389 5.69 6.74 5.074 8.644 5.074C9.554 5.074 10.24 5.27 10.702 5.662C11.164 6.054 11.472 6.495 11.626 6.985C12.018 6.383 12.557 5.914 13.243 5.578C13.929 5.242 14.699 5.074 15.553 5.074C16.281 5.074 16.862 5.207 17.296 5.473C17.73 5.739 18.052 6.082 18.262 6.502C18.486 6.922 18.633 7.363 18.703 7.825C18.773 8.273 18.808 8.686 18.808 9.064V16.33Z" fill="white"/>
<path d="M20.14 12.991C20.14 12.249 20.343 11.598 20.749 11.038C21.155 10.464 21.715 10.016 22.429 9.694C23.157 9.372 23.983 9.211 24.907 9.211C25.803 9.211 26.545 9.351 27.133 9.631V9.295C27.133 8.777 26.979 8.392 26.671 8.14C26.377 7.888 25.894 7.762 25.222 7.762C24.606 7.762 24.025 7.867 23.479 8.077C22.947 8.273 22.387 8.567 21.799 8.959L20.644 6.481C22.1 5.543 23.759 5.074 25.621 5.074C27.371 5.074 28.722 5.473 29.674 6.271C30.64 7.055 31.123 8.224 31.123 9.778V11.92C31.123 12.298 31.179 12.564 31.291 12.718C31.403 12.858 31.599 12.942 31.879 12.97V16.33C31.557 16.4 31.249 16.449 30.955 16.477C30.675 16.519 30.423 16.54 30.199 16.54C29.485 16.54 28.939 16.414 28.561 16.162C28.197 15.896 27.959 15.511 27.847 15.007L27.763 14.608C26.755 15.896 25.502 16.54 24.004 16.54C23.276 16.54 22.618 16.386 22.03 16.078C21.442 15.77 20.98 15.35 20.644 14.818C20.308 14.272 20.14 13.663 20.14 12.991ZM26.608 13.264C26.958 13.026 27.133 12.767 27.133 12.487V11.668C26.909 11.584 26.65 11.514 26.356 11.458C26.076 11.402 25.824 11.374 25.6 11.374C25.124 11.374 24.718 11.493 24.382 11.731C24.06 11.969 23.899 12.27 23.899 12.634C23.899 12.942 24.018 13.194 24.256 13.39C24.508 13.586 24.823 13.684 25.201 13.684C25.719 13.684 26.188 13.544 26.608 13.264Z" fill="white"/>
<path d="M40.8173 8.686C40.0473 8.686 39.3473 8.77 38.7173 8.938C38.0873 9.106 37.6183 9.386 37.3103 9.778V16.33H33.3203V5.284H36.9743V7.384C37.3663 6.642 37.8563 6.075 38.4443 5.683C39.0323 5.277 39.6553 5.074 40.3133 5.074C40.5793 5.074 40.7473 5.081 40.8173 5.095V8.686Z" fill="white"/>
<path d="M53.1656 16.33H49.1756V10.114C49.1756 9.568 49.0496 9.176 48.7976 8.938C48.5596 8.686 48.2586 8.56 47.8946 8.56C47.6286 8.56 47.2996 8.7 46.9076 8.98C46.5296 9.26 46.2426 9.645 46.0466 10.135V16.33H42.0566V1H46.0466V6.922C46.4386 6.32 46.9496 5.865 47.5796 5.557C48.2236 5.235 48.9306 5.074 49.7006 5.074C50.4846 5.074 51.1076 5.207 51.5696 5.473C52.0316 5.725 52.3746 6.054 52.5986 6.46C52.8226 6.866 52.9696 7.3 53.0396 7.762C53.1236 8.224 53.1656 8.658 53.1656 9.064V16.33Z" fill="white"/>
<path d="M55.0996 4.36V1H59.0896V4.36H55.0996ZM55.0996 16.33V5.284H59.0896V16.33H55.0996Z" fill="white"/>
<path d="M78.9164 16.33H74.9264V10.114C74.9264 9.568 74.8144 9.176 74.5904 8.938C74.3804 8.686 74.1214 8.56 73.8134 8.56C73.5054 8.56 73.1694 8.707 72.8054 9.001C72.4414 9.295 72.1754 9.673 72.0074 10.135V16.33H68.0174V10.114C68.0174 9.568 67.9054 9.176 67.6814 8.938C67.4714 8.686 67.2124 8.56 66.9044 8.56C66.5964 8.56 66.2604 8.707 65.8964 9.001C65.5324 9.295 65.2664 9.673 65.0984 10.135V16.33H61.1084V5.284H64.6994V6.922C65.4974 5.69 66.8484 5.074 68.7524 5.074C69.6624 5.074 70.3484 5.27 70.8104 5.662C71.2724 6.054 71.5804 6.495 71.7344 6.985C72.1264 6.383 72.6654 5.914 73.3514 5.578C74.0374 5.242 74.8074 5.074 75.6614 5.074C76.3894 5.074 76.9704 5.207 77.4044 5.473C77.8384 5.739 78.1604 6.082 78.3704 6.502C78.5944 6.922 78.7414 7.363 78.8114 7.825C78.8814 8.273 78.9164 8.686 78.9164 9.064V16.33Z" fill="white"/>
<path d="M86.2964 16.54C85.0084 16.54 83.9094 16.281 82.9994 15.763C82.1034 15.245 81.4174 14.559 80.9414 13.705C80.4794 12.851 80.2484 11.934 80.2484 10.954C80.2484 9.89 80.4794 8.917 80.9414 8.035C81.4034 7.139 82.0824 6.425 82.9784 5.893C83.8744 5.347 84.9804 5.074 86.2964 5.074C87.6124 5.074 88.7184 5.34 89.6144 5.872C90.5104 6.404 91.1894 7.104 91.6514 7.972C92.1134 8.84 92.3444 9.785 92.3444 10.807C92.3444 11.241 92.3094 11.647 92.2394 12.025H84.4904C84.5324 12.613 84.7494 13.04 85.1414 13.306C85.5334 13.558 85.9604 13.684 86.4224 13.684C86.8564 13.684 87.2624 13.586 87.6404 13.39C88.0324 13.194 88.2914 12.921 88.4174 12.571L91.7984 13.537C91.3504 14.419 90.6574 15.14 89.7194 15.7C88.7814 16.26 87.6404 16.54 86.2964 16.54ZM84.4064 9.631H88.0604C88.0044 9.099 87.8084 8.679 87.4724 8.371C87.1504 8.063 86.7374 7.909 86.2334 7.909C85.7294 7.909 85.3164 8.063 84.9944 8.371C84.6724 8.679 84.4764 9.099 84.4064 9.631Z" fill="white"/>
<path d="M93.6963 16.33V12.466H96.9303V16.33H93.6963Z" fill="white"/>
<path d="M18.808 16.33H14.818V10.114C14.818 9.568 14.706 9.176 14.482 8.938C14.272 8.686 14.013 8.56 13.705 8.56C13.397 8.56 13.061 8.707 12.697 9.001C12.333 9.295 12.067 9.673 11.899 10.135V16.33H7.909V10.114C7.909 9.568 7.797 9.176 7.573 8.938C7.363 8.686 7.104 8.56 6.796 8.56C6.488 8.56 6.152 8.707 5.788 9.001C5.424 9.295 5.158 9.673 4.99 10.135V16.33H1V5.284H4.591V6.922C5.389 5.69 6.74 5.074 8.644 5.074C9.554 5.074 10.24 5.27 10.702 5.662C11.164 6.054 11.472 6.495 11.626 6.985C12.018 6.383 12.557 5.914 13.243 5.578C13.929 5.242 14.699 5.074 15.553 5.074C16.281 5.074 16.862 5.207 17.296 5.473C17.73 5.739 18.052 6.082 18.262 6.502C18.486 6.922 18.633 7.363 18.703 7.825C18.773 8.273 18.808 8.686 18.808 9.064V16.33Z" stroke="white" stroke-width="0.8" mask="url(#path-2-outside-2_66_31)"/>
<path d="M20.14 12.991C20.14 12.249 20.343 11.598 20.749 11.038C21.155 10.464 21.715 10.016 22.429 9.694C23.157 9.372 23.983 9.211 24.907 9.211C25.803 9.211 26.545 9.351 27.133 9.631V9.295C27.133 8.777 26.979 8.392 26.671 8.14C26.377 7.888 25.894 7.762 25.222 7.762C24.606 7.762 24.025 7.867 23.479 8.077C22.947 8.273 22.387 8.567 21.799 8.959L20.644 6.481C22.1 5.543 23.759 5.074 25.621 5.074C27.371 5.074 28.722 5.473 29.674 6.271C30.64 7.055 31.123 8.224 31.123 9.778V11.92C31.123 12.298 31.179 12.564 31.291 12.718C31.403 12.858 31.599 12.942 31.879 12.97V16.33C31.557 16.4 31.249 16.449 30.955 16.477C30.675 16.519 30.423 16.54 30.199 16.54C29.485 16.54 28.939 16.414 28.561 16.162C28.197 15.896 27.959 15.511 27.847 15.007L27.763 14.608C26.755 15.896 25.502 16.54 24.004 16.54C23.276 16.54 22.618 16.386 22.03 16.078C21.442 15.77 20.98 15.35 20.644 14.818C20.308 14.272 20.14 13.663 20.14 12.991ZM26.608 13.264C26.958 13.026 27.133 12.767 27.133 12.487V11.668C26.909 11.584 26.65 11.514 26.356 11.458C26.076 11.402 25.824 11.374 25.6 11.374C25.124 11.374 24.718 11.493 24.382 11.731C24.06 11.969 23.899 12.27 23.899 12.634C23.899 12.942 24.018 13.194 24.256 13.39C24.508 13.586 24.823 13.684 25.201 13.684C25.719 13.684 26.188 13.544 26.608 13.264Z" stroke="white" stroke-width="0.8" mask="url(#path-2-outside-2_66_31)"/>
<path d="M40.8173 8.686C40.0473 8.686 39.3473 8.77 38.7173 8.938C38.0873 9.106 37.6183 9.386 37.3103 9.778V16.33H33.3203V5.284H36.9743V7.384C37.3663 6.642 37.8563 6.075 38.4443 5.683C39.0323 5.277 39.6553 5.074 40.3133 5.074C40.5793 5.074 40.7473 5.081 40.8173 5.095V8.686Z" stroke="white" stroke-width="0.8" mask="url(#path-2-outside-2_66_31)"/>
<path d="M53.1656 16.33H49.1756V10.114C49.1756 9.568 49.0496 9.176 48.7976 8.938C48.5596 8.686 48.2586 8.56 47.8946 8.56C47.6286 8.56 47.2996 8.7 46.9076 8.98C46.5296 9.26 46.2426 9.645 46.0466 10.135V16.33H42.0566V1H46.0466V6.922C46.4386 6.32 46.9496 5.865 47.5796 5.557C48.2236 5.235 48.9306 5.074 49.7006 5.074C50.4846 5.074 51.1076 5.207 51.5696 5.473C52.0316 5.725 52.3746 6.054 52.5986 6.46C52.8226 6.866 52.9696 7.3 53.0396 7.762C53.1236 8.224 53.1656 8.658 53.1656 9.064V16.33Z" stroke="white" stroke-width="0.8" mask="url(#path-2-outside-2_66_31)"/>
<path d="M55.0996 4.36V1H59.0896V4.36H55.0996ZM55.0996 16.33V5.284H59.0896V16.33H55.0996Z" stroke="white" stroke-width="0.8" mask="url(#path-2-outside-2_66_31)"/>
<path d="M78.9164 16.33H74.9264V10.114C74.9264 9.568 74.8144 9.176 74.5904 8.938C74.3804 8.686 74.1214 8.56 73.8134 8.56C73.5054 8.56 73.1694 8.707 72.8054 9.001C72.4414 9.295 72.1754 9.673 72.0074 10.135V16.33H68.0174V10.114C68.0174 9.568 67.9054 9.176 67.6814 8.938C67.4714 8.686 67.2124 8.56 66.9044 8.56C66.5964 8.56 66.2604 8.707 65.8964 9.001C65.5324 9.295 65.2664 9.673 65.0984 10.135V16.33H61.1084V5.284H64.6994V6.922C65.4974 5.69 66.8484 5.074 68.7524 5.074C69.6624 5.074 70.3484 5.27 70.8104 5.662C71.2724 6.054 71.5804 6.495 71.7344 6.985C72.1264 6.383 72.6654 5.914 73.3514 5.578C74.0374 5.242 74.8074 5.074 75.6614 5.074C76.3894 5.074 76.9704 5.207 77.4044 5.473C77.8384 5.739 78.1604 6.082 78.3704 6.502C78.5944 6.922 78.7414 7.363 78.8114 7.825C78.8814 8.273 78.9164 8.686 78.9164 9.064V16.33Z" stroke="white" stroke-width="0.8" mask="url(#path-2-outside-2_66_31)"/>
<path d="M86.2964 16.54C85.0084 16.54 83.9094 16.281 82.9994 15.763C82.1034 15.245 81.4174 14.559 80.9414 13.705C80.4794 12.851 80.2484 11.934 80.2484 10.954C80.2484 9.89 80.4794 8.917 80.9414 8.035C81.4034 7.139 82.0824 6.425 82.9784 5.893C83.8744 5.347 84.9804 5.074 86.2964 5.074C87.6124 5.074 88.7184 5.34 89.6144 5.872C90.5104 6.404 91.1894 7.104 91.6514 7.972C92.1134 8.84 92.3444 9.785 92.3444 10.807C92.3444 11.241 92.3094 11.647 92.2394 12.025H84.4904C84.5324 12.613 84.7494 13.04 85.1414 13.306C85.5334 13.558 85.9604 13.684 86.4224 13.684C86.8564 13.684 87.2624 13.586 87.6404 13.39C88.0324 13.194 88.2914 12.921 88.4174 12.571L91.7984 13.537C91.3504 14.419 90.6574 15.14 89.7194 15.7C88.7814 16.26 87.6404 16.54 86.2964 16.54ZM84.4064 9.631H88.0604C88.0044 9.099 87.8084 8.679 87.4724 8.371C87.1504 8.063 86.7374 7.909 86.2334 7.909C85.7294 7.909 85.3164 8.063 84.9944 8.371C84.6724 8.679 84.4764 9.099 84.4064 9.631Z" stroke="white" stroke-width="0.8" mask="url(#path-2-outside-2_66_31)"/>
<path d="M93.6963 16.33V12.466H96.9303V16.33H93.6963Z" stroke="white" stroke-width="0.8" mask="url(#path-2-outside-2_66_31)"/>
</svg>
