<svg width="98" height="19" viewBox="0 0 98 19" fill="none" xmlns="http://www.w3.org/2000/svg">
<path d="M18.816 16H14.826V9.78401C14.826 9.23801 14.714 8.84601 14.49 8.60801C14.28 8.35601 14.021 8.23001 13.713 8.23001C13.405 8.23001 13.069 8.37701 12.705 8.67101C12.341 8.96501 12.075 9.34301 11.907 9.80501V16H7.917V9.78401C7.917 9.23801 7.805 8.84601 7.581 8.60801C7.371 8.35601 7.112 8.23001 6.804 8.23001C6.496 8.23001 6.16 8.37701 5.796 8.67101C5.432 8.96501 5.166 9.34301 4.998 9.80501V16H1.008V4.95401H4.599V6.59201C5.397 5.36001 6.748 4.74401 8.652 4.74401C9.562 4.74401 10.248 4.94001 10.71 5.33201C11.172 5.72401 11.48 6.16501 11.634 6.65501C12.026 6.05301 12.565 5.58401 13.251 5.24801C13.937 4.91201 14.707 4.74401 15.561 4.74401C16.289 4.74401 16.87 4.87701 17.304 5.14301C17.738 5.40901 18.06 5.75201 18.27 6.17201C18.494 6.59201 18.641 7.03301 18.711 7.49501C18.781 7.94301 18.816 8.35601 18.816 8.73401V16Z" fill="white"/>
<path d="M20.148 12.661C20.148 11.919 20.351 11.268 20.757 10.708C21.163 10.134 21.723 9.68601 22.437 9.36401C23.165 9.04201 23.991 8.88101 24.915 8.88101C25.811 8.88101 26.553 9.02101 27.141 9.30101V8.96501C27.141 8.44701 26.987 8.06201 26.679 7.81001C26.385 7.55801 25.902 7.43201 25.23 7.43201C24.614 7.43201 24.033 7.53701 23.487 7.74701C22.955 7.94301 22.395 8.23701 21.807 8.62901L20.652 6.15101C22.108 5.21301 23.767 4.74401 25.629 4.74401C27.379 4.74401 28.73 5.14301 29.682 5.94101C30.648 6.72501 31.131 7.89401 31.131 9.44801V11.59C31.131 11.968 31.187 12.234 31.299 12.388C31.411 12.528 31.607 12.612 31.887 12.64V16C31.565 16.07 31.257 16.119 30.963 16.147C30.683 16.189 30.431 16.21 30.207 16.21C29.493 16.21 28.947 16.084 28.569 15.832C28.205 15.566 27.967 15.181 27.855 14.677L27.771 14.278C26.763 15.566 25.51 16.21 24.012 16.21C23.284 16.21 22.626 16.056 22.038 15.748C21.45 15.44 20.988 15.02 20.652 14.488C20.316 13.942 20.148 13.333 20.148 12.661ZM26.616 12.934C26.966 12.696 27.141 12.437 27.141 12.157V11.338C26.917 11.254 26.658 11.184 26.364 11.128C26.084 11.072 25.832 11.044 25.608 11.044C25.132 11.044 24.726 11.163 24.39 11.401C24.068 11.639 23.907 11.94 23.907 12.304C23.907 12.612 24.026 12.864 24.264 13.06C24.516 13.256 24.831 13.354 25.209 13.354C25.727 13.354 26.196 13.214 26.616 12.934Z" fill="white"/>
<path d="M40.8253 8.35601C40.0553 8.35601 39.3553 8.44001 38.7253 8.60801C38.0953 8.77601 37.6263 9.05601 37.3183 9.44801V16H33.3283V4.95401H36.9823V7.05401C37.3743 6.31201 37.8643 5.74501 38.4523 5.35301C39.0403 4.94701 39.6633 4.74401 40.3213 4.74401C40.5873 4.74401 40.7553 4.75101 40.8253 4.76501V8.35601Z" fill="white"/>
<path d="M53.1736 16H49.1836V9.78401C49.1836 9.23801 49.0576 8.84601 48.8056 8.60801C48.5676 8.35601 48.2666 8.23001 47.9026 8.23001C47.6366 8.23001 47.3076 8.37001 46.9156 8.65001C46.5376 8.93001 46.2506 9.31501 46.0546 9.80501V16H42.0646V0.670013H46.0546V6.59201C46.4466 5.99001 46.9576 5.53501 47.5876 5.22701C48.2316 4.90501 48.9386 4.74401 49.7086 4.74401C50.4926 4.74401 51.1156 4.87701 51.5776 5.14301C52.0396 5.39501 52.3826 5.72401 52.6066 6.13001C52.8306 6.53601 52.9776 6.97001 53.0476 7.43201C53.1316 7.89401 53.1736 8.32801 53.1736 8.73401V16Z" fill="white"/>
<path d="M55.1076 4.03001V0.670013H59.0976V4.03001H55.1076ZM55.1076 16V4.95401H59.0976V16H55.1076Z" fill="white"/>
<path d="M78.9244 16H74.9344V9.78401C74.9344 9.23801 74.8224 8.84601 74.5984 8.60801C74.3884 8.35601 74.1294 8.23001 73.8214 8.23001C73.5134 8.23001 73.1774 8.37701 72.8134 8.67101C72.4494 8.96501 72.1834 9.34301 72.0154 9.80501V16H68.0254V9.78401C68.0254 9.23801 67.9134 8.84601 67.6894 8.60801C67.4794 8.35601 67.2204 8.23001 66.9124 8.23001C66.6044 8.23001 66.2684 8.37701 65.9044 8.67101C65.5404 8.96501 65.2744 9.34301 65.1064 9.80501V16H61.1164V4.95401H64.7074V6.59201C65.5054 5.36001 66.8564 4.74401 68.7604 4.74401C69.6704 4.74401 70.3564 4.94001 70.8184 5.33201C71.2804 5.72401 71.5884 6.16501 71.7424 6.65501C72.1344 6.05301 72.6734 5.58401 73.3594 5.24801C74.0454 4.91201 74.8154 4.74401 75.6694 4.74401C76.3974 4.74401 76.9784 4.87701 77.4124 5.14301C77.8464 5.40901 78.1684 5.75201 78.3784 6.17201C78.6024 6.59201 78.7494 7.03301 78.8194 7.49501C78.8894 7.94301 78.9244 8.35601 78.9244 8.73401V16Z" fill="white"/>
<path d="M86.3044 16.21C85.0164 16.21 83.9174 15.951 83.0074 15.433C82.1114 14.915 81.4254 14.229 80.9494 13.375C80.4874 12.521 80.2564 11.604 80.2564 10.624C80.2564 9.56001 80.4874 8.58701 80.9494 7.70501C81.4114 6.80901 82.0904 6.09501 82.9864 5.56301C83.8824 5.01701 84.9884 4.74401 86.3044 4.74401C87.6204 4.74401 88.7264 5.01001 89.6224 5.54201C90.5184 6.07401 91.1974 6.77401 91.6594 7.64201C92.1214 8.51001 92.3524 9.45501 92.3524 10.477C92.3524 10.911 92.3174 11.317 92.2474 11.695H84.4984C84.5404 12.283 84.7574 12.71 85.1494 12.976C85.5414 13.228 85.9684 13.354 86.4304 13.354C86.8644 13.354 87.2704 13.256 87.6484 13.06C88.0404 12.864 88.2994 12.591 88.4254 12.241L91.8064 13.207C91.3584 14.089 90.6654 14.81 89.7274 15.37C88.7894 15.93 87.6484 16.21 86.3044 16.21ZM84.4144 9.30101H88.0684C88.0124 8.76901 87.8164 8.34901 87.4804 8.04101C87.1584 7.73301 86.7454 7.57901 86.2414 7.57901C85.7374 7.57901 85.3244 7.73301 85.0024 8.04101C84.6804 8.34901 84.4844 8.76901 84.4144 9.30101Z" fill="white"/>
<path d="M93.7043 16V12.136H96.9383V16H93.7043Z" fill="white"/>
<mask id="path-2-outside-1_66_30" maskUnits="userSpaceOnUse" x="0.00799561" y="1.67001" width="98" height="17" fill="black">
<rect fill="white" x="0.00799561" y="1.67001" width="98" height="17"/>
<path d="M18.816 18H14.826V11.784C14.826 11.238 14.714 10.846 14.49 10.608C14.28 10.356 14.021 10.23 13.713 10.23C13.405 10.23 13.069 10.377 12.705 10.671C12.341 10.965 12.075 11.343 11.907 11.805V18H7.917V11.784C7.917 11.238 7.805 10.846 7.581 10.608C7.371 10.356 7.112 10.23 6.804 10.23C6.496 10.23 6.16 10.377 5.796 10.671C5.432 10.965 5.166 11.343 4.998 11.805V18H1.008V6.95401H4.599V8.59201C5.397 7.36001 6.748 6.74401 8.652 6.74401C9.562 6.74401 10.248 6.94001 10.71 7.33201C11.172 7.72401 11.48 8.16501 11.634 8.65501C12.026 8.05301 12.565 7.58401 13.251 7.24801C13.937 6.91201 14.707 6.74401 15.561 6.74401C16.289 6.74401 16.87 6.87701 17.304 7.14301C17.738 7.40901 18.06 7.75201 18.27 8.17201C18.494 8.59201 18.641 9.03301 18.711 9.49501C18.781 9.94301 18.816 10.356 18.816 10.734V18Z"/>
<path d="M20.148 14.661C20.148 13.919 20.351 13.268 20.757 12.708C21.163 12.134 21.723 11.686 22.437 11.364C23.165 11.042 23.991 10.881 24.915 10.881C25.811 10.881 26.553 11.021 27.141 11.301V10.965C27.141 10.447 26.987 10.062 26.679 9.81001C26.385 9.55801 25.902 9.43201 25.23 9.43201C24.614 9.43201 24.033 9.53701 23.487 9.74701C22.955 9.94301 22.395 10.237 21.807 10.629L20.652 8.15101C22.108 7.21301 23.767 6.74401 25.629 6.74401C27.379 6.74401 28.73 7.14301 29.682 7.94101C30.648 8.72501 31.131 9.89401 31.131 11.448V13.59C31.131 13.968 31.187 14.234 31.299 14.388C31.411 14.528 31.607 14.612 31.887 14.64V18C31.565 18.07 31.257 18.119 30.963 18.147C30.683 18.189 30.431 18.21 30.207 18.21C29.493 18.21 28.947 18.084 28.569 17.832C28.205 17.566 27.967 17.181 27.855 16.677L27.771 16.278C26.763 17.566 25.51 18.21 24.012 18.21C23.284 18.21 22.626 18.056 22.038 17.748C21.45 17.44 20.988 17.02 20.652 16.488C20.316 15.942 20.148 15.333 20.148 14.661ZM26.616 14.934C26.966 14.696 27.141 14.437 27.141 14.157V13.338C26.917 13.254 26.658 13.184 26.364 13.128C26.084 13.072 25.832 13.044 25.608 13.044C25.132 13.044 24.726 13.163 24.39 13.401C24.068 13.639 23.907 13.94 23.907 14.304C23.907 14.612 24.026 14.864 24.264 15.06C24.516 15.256 24.831 15.354 25.209 15.354C25.727 15.354 26.196 15.214 26.616 14.934Z"/>
<path d="M40.8253 10.356C40.0553 10.356 39.3553 10.44 38.7253 10.608C38.0953 10.776 37.6263 11.056 37.3183 11.448V18H33.3283V6.95401H36.9823V9.05401C37.3743 8.31201 37.8643 7.74501 38.4523 7.35301C39.0403 6.94701 39.6633 6.74401 40.3213 6.74401C40.5873 6.74401 40.7553 6.75101 40.8253 6.76501V10.356Z"/>
<path d="M53.1736 18H49.1836V11.784C49.1836 11.238 49.0576 10.846 48.8056 10.608C48.5676 10.356 48.2666 10.23 47.9026 10.23C47.6366 10.23 47.3076 10.37 46.9156 10.65C46.5376 10.93 46.2506 11.315 46.0546 11.805V18H42.0646V2.67001H46.0546V8.59201C46.4466 7.99001 46.9576 7.53501 47.5876 7.22701C48.2316 6.90501 48.9386 6.74401 49.7086 6.74401C50.4926 6.74401 51.1156 6.87701 51.5776 7.14301C52.0396 7.39501 52.3826 7.72401 52.6066 8.13001C52.8306 8.53601 52.9776 8.97001 53.0476 9.43201C53.1316 9.89401 53.1736 10.328 53.1736 10.734V18Z"/>
<path d="M55.1076 6.03001V2.67001H59.0976V6.03001H55.1076ZM55.1076 18V6.95401H59.0976V18H55.1076Z"/>
<path d="M78.9244 18H74.9344V11.784C74.9344 11.238 74.8224 10.846 74.5984 10.608C74.3884 10.356 74.1294 10.23 73.8214 10.23C73.5134 10.23 73.1774 10.377 72.8134 10.671C72.4494 10.965 72.1834 11.343 72.0154 11.805V18H68.0254V11.784C68.0254 11.238 67.9134 10.846 67.6894 10.608C67.4794 10.356 67.2204 10.23 66.9124 10.23C66.6044 10.23 66.2684 10.377 65.9044 10.671C65.5404 10.965 65.2744 11.343 65.1064 11.805V18H61.1164V6.95401H64.7074V8.59201C65.5054 7.36001 66.8564 6.74401 68.7604 6.74401C69.6704 6.74401 70.3564 6.94001 70.8184 7.33201C71.2804 7.72401 71.5884 8.16501 71.7424 8.65501C72.1344 8.05301 72.6734 7.58401 73.3594 7.24801C74.0454 6.91201 74.8154 6.74401 75.6694 6.74401C76.3974 6.74401 76.9784 6.87701 77.4124 7.14301C77.8464 7.40901 78.1684 7.75201 78.3784 8.17201C78.6024 8.59201 78.7494 9.03301 78.8194 9.49501C78.8894 9.94301 78.9244 10.356 78.9244 10.734V18Z"/>
<path d="M86.3044 18.21C85.0164 18.21 83.9174 17.951 83.0074 17.433C82.1114 16.915 81.4254 16.229 80.9494 15.375C80.4874 14.521 80.2564 13.604 80.2564 12.624C80.2564 11.56 80.4874 10.587 80.9494 9.70501C81.4114 8.80901 82.0904 8.09501 82.9864 7.56301C83.8824 7.01701 84.9884 6.74401 86.3044 6.74401C87.6204 6.74401 88.7264 7.01001 89.6224 7.54201C90.5184 8.07401 91.1974 8.77401 91.6594 9.64201C92.1214 10.51 92.3524 11.455 92.3524 12.477C92.3524 12.911 92.3174 13.317 92.2474 13.695H84.4984C84.5404 14.283 84.7574 14.71 85.1494 14.976C85.5414 15.228 85.9684 15.354 86.4304 15.354C86.8644 15.354 87.2704 15.256 87.6484 15.06C88.0404 14.864 88.2994 14.591 88.4254 14.241L91.8064 15.207C91.3584 16.089 90.6654 16.81 89.7274 17.37C88.7894 17.93 87.6484 18.21 86.3044 18.21ZM84.4144 11.301H88.0684C88.0124 10.769 87.8164 10.349 87.4804 10.041C87.1584 9.73301 86.7454 9.57901 86.2414 9.57901C85.7374 9.57901 85.3244 9.73301 85.0024 10.041C84.6804 10.349 84.4844 10.769 84.4144 11.301Z"/>
<path d="M93.7043 18V14.136H96.9383V18H93.7043Z"/>
</mask>
<path d="M18.816 18H14.826V11.784C14.826 11.238 14.714 10.846 14.49 10.608C14.28 10.356 14.021 10.23 13.713 10.23C13.405 10.23 13.069 10.377 12.705 10.671C12.341 10.965 12.075 11.343 11.907 11.805V18H7.917V11.784C7.917 11.238 7.805 10.846 7.581 10.608C7.371 10.356 7.112 10.23 6.804 10.23C6.496 10.23 6.16 10.377 5.796 10.671C5.432 10.965 5.166 11.343 4.998 11.805V18H1.008V6.95401H4.599V8.59201C5.397 7.36001 6.748 6.74401 8.652 6.74401C9.562 6.74401 10.248 6.94001 10.71 7.33201C11.172 7.72401 11.48 8.16501 11.634 8.65501C12.026 8.05301 12.565 7.58401 13.251 7.24801C13.937 6.91201 14.707 6.74401 15.561 6.74401C16.289 6.74401 16.87 6.87701 17.304 7.14301C17.738 7.40901 18.06 7.75201 18.27 8.17201C18.494 8.59201 18.641 9.03301 18.711 9.49501C18.781 9.94301 18.816 10.356 18.816 10.734V18Z" fill="black"/>
<path d="M20.148 14.661C20.148 13.919 20.351 13.268 20.757 12.708C21.163 12.134 21.723 11.686 22.437 11.364C23.165 11.042 23.991 10.881 24.915 10.881C25.811 10.881 26.553 11.021 27.141 11.301V10.965C27.141 10.447 26.987 10.062 26.679 9.81001C26.385 9.55801 25.902 9.43201 25.23 9.43201C24.614 9.43201 24.033 9.53701 23.487 9.74701C22.955 9.94301 22.395 10.237 21.807 10.629L20.652 8.15101C22.108 7.21301 23.767 6.74401 25.629 6.74401C27.379 6.74401 28.73 7.14301 29.682 7.94101C30.648 8.72501 31.131 9.89401 31.131 11.448V13.59C31.131 13.968 31.187 14.234 31.299 14.388C31.411 14.528 31.607 14.612 31.887 14.64V18C31.565 18.07 31.257 18.119 30.963 18.147C30.683 18.189 30.431 18.21 30.207 18.21C29.493 18.21 28.947 18.084 28.569 17.832C28.205 17.566 27.967 17.181 27.855 16.677L27.771 16.278C26.763 17.566 25.51 18.21 24.012 18.21C23.284 18.21 22.626 18.056 22.038 17.748C21.45 17.44 20.988 17.02 20.652 16.488C20.316 15.942 20.148 15.333 20.148 14.661ZM26.616 14.934C26.966 14.696 27.141 14.437 27.141 14.157V13.338C26.917 13.254 26.658 13.184 26.364 13.128C26.084 13.072 25.832 13.044 25.608 13.044C25.132 13.044 24.726 13.163 24.39 13.401C24.068 13.639 23.907 13.94 23.907 14.304C23.907 14.612 24.026 14.864 24.264 15.06C24.516 15.256 24.831 15.354 25.209 15.354C25.727 15.354 26.196 15.214 26.616 14.934Z" fill="black"/>
<path d="M40.8253 10.356C40.0553 10.356 39.3553 10.44 38.7253 10.608C38.0953 10.776 37.6263 11.056 37.3183 11.448V18H33.3283V6.95401H36.9823V9.05401C37.3743 8.31201 37.8643 7.74501 38.4523 7.35301C39.0403 6.94701 39.6633 6.74401 40.3213 6.74401C40.5873 6.74401 40.7553 6.75101 40.8253 6.76501V10.356Z" fill="black"/>
<path d="M53.1736 18H49.1836V11.784C49.1836 11.238 49.0576 10.846 48.8056 10.608C48.5676 10.356 48.2666 10.23 47.9026 10.23C47.6366 10.23 47.3076 10.37 46.9156 10.65C46.5376 10.93 46.2506 11.315 46.0546 11.805V18H42.0646V2.67001H46.0546V8.59201C46.4466 7.99001 46.9576 7.53501 47.5876 7.22701C48.2316 6.90501 48.9386 6.74401 49.7086 6.74401C50.4926 6.74401 51.1156 6.87701 51.5776 7.14301C52.0396 7.39501 52.3826 7.72401 52.6066 8.13001C52.8306 8.53601 52.9776 8.97001 53.0476 9.43201C53.1316 9.89401 53.1736 10.328 53.1736 10.734V18Z" fill="black"/>
<path d="M55.1076 6.03001V2.67001H59.0976V6.03001H55.1076ZM55.1076 18V6.95401H59.0976V18H55.1076Z" fill="black"/>
<path d="M78.9244 18H74.9344V11.784C74.9344 11.238 74.8224 10.846 74.5984 10.608C74.3884 10.356 74.1294 10.23 73.8214 10.23C73.5134 10.23 73.1774 10.377 72.8134 10.671C72.4494 10.965 72.1834 11.343 72.0154 11.805V18H68.0254V11.784C68.0254 11.238 67.9134 10.846 67.6894 10.608C67.4794 10.356 67.2204 10.23 66.9124 10.23C66.6044 10.23 66.2684 10.377 65.9044 10.671C65.5404 10.965 65.2744 11.343 65.1064 11.805V18H61.1164V6.95401H64.7074V8.59201C65.5054 7.36001 66.8564 6.74401 68.7604 6.74401C69.6704 6.74401 70.3564 6.94001 70.8184 7.33201C71.2804 7.72401 71.5884 8.16501 71.7424 8.65501C72.1344 8.05301 72.6734 7.58401 73.3594 7.24801C74.0454 6.91201 74.8154 6.74401 75.6694 6.74401C76.3974 6.74401 76.9784 6.87701 77.4124 7.14301C77.8464 7.40901 78.1684 7.75201 78.3784 8.17201C78.6024 8.59201 78.7494 9.03301 78.8194 9.49501C78.8894 9.94301 78.9244 10.356 78.9244 10.734V18Z" fill="black"/>
<path d="M86.3044 18.21C85.0164 18.21 83.9174 17.951 83.0074 17.433C82.1114 16.915 81.4254 16.229 80.9494 15.375C80.4874 14.521 80.2564 13.604 80.2564 12.624C80.2564 11.56 80.4874 10.587 80.9494 9.70501C81.4114 8.80901 82.0904 8.09501 82.9864 7.56301C83.8824 7.01701 84.9884 6.74401 86.3044 6.74401C87.6204 6.74401 88.7264 7.01001 89.6224 7.54201C90.5184 8.07401 91.1974 8.77401 91.6594 9.64201C92.1214 10.51 92.3524 11.455 92.3524 12.477C92.3524 12.911 92.3174 13.317 92.2474 13.695H84.4984C84.5404 14.283 84.7574 14.71 85.1494 14.976C85.5414 15.228 85.9684 15.354 86.4304 15.354C86.8644 15.354 87.2704 15.256 87.6484 15.06C88.0404 14.864 88.2994 14.591 88.4254 14.241L91.8064 15.207C91.3584 16.089 90.6654 16.81 89.7274 17.37C88.7894 17.93 87.6484 18.21 86.3044 18.21ZM84.4144 11.301H88.0684C88.0124 10.769 87.8164 10.349 87.4804 10.041C87.1584 9.73301 86.7454 9.57901 86.2414 9.57901C85.7374 9.57901 85.3244 9.73301 85.0024 10.041C84.6804 10.349 84.4844 10.769 84.4144 11.301Z" fill="black"/>
<path d="M93.7043 18V14.136H96.9383V18H93.7043Z" fill="black"/>
<path d="M18.816 18H14.826V11.784C14.826 11.238 14.714 10.846 14.49 10.608C14.28 10.356 14.021 10.23 13.713 10.23C13.405 10.23 13.069 10.377 12.705 10.671C12.341 10.965 12.075 11.343 11.907 11.805V18H7.917V11.784C7.917 11.238 7.805 10.846 7.581 10.608C7.371 10.356 7.112 10.23 6.804 10.23C6.496 10.23 6.16 10.377 5.796 10.671C5.432 10.965 5.166 11.343 4.998 11.805V18H1.008V6.95401H4.599V8.59201C5.397 7.36001 6.748 6.74401 8.652 6.74401C9.562 6.74401 10.248 6.94001 10.71 7.33201C11.172 7.72401 11.48 8.16501 11.634 8.65501C12.026 8.05301 12.565 7.58401 13.251 7.24801C13.937 6.91201 14.707 6.74401 15.561 6.74401C16.289 6.74401 16.87 6.87701 17.304 7.14301C17.738 7.40901 18.06 7.75201 18.27 8.17201C18.494 8.59201 18.641 9.03301 18.711 9.49501C18.781 9.94301 18.816 10.356 18.816 10.734V18Z" stroke="white" stroke-width="0.8" mask="url(#path-2-outside-1_66_30)"/>
<path d="M20.148 14.661C20.148 13.919 20.351 13.268 20.757 12.708C21.163 12.134 21.723 11.686 22.437 11.364C23.165 11.042 23.991 10.881 24.915 10.881C25.811 10.881 26.553 11.021 27.141 11.301V10.965C27.141 10.447 26.987 10.062 26.679 9.81001C26.385 9.55801 25.902 9.43201 25.23 9.43201C24.614 9.43201 24.033 9.53701 23.487 9.74701C22.955 9.94301 22.395 10.237 21.807 10.629L20.652 8.15101C22.108 7.21301 23.767 6.74401 25.629 6.74401C27.379 6.74401 28.73 7.14301 29.682 7.94101C30.648 8.72501 31.131 9.89401 31.131 11.448V13.59C31.131 13.968 31.187 14.234 31.299 14.388C31.411 14.528 31.607 14.612 31.887 14.64V18C31.565 18.07 31.257 18.119 30.963 18.147C30.683 18.189 30.431 18.21 30.207 18.21C29.493 18.21 28.947 18.084 28.569 17.832C28.205 17.566 27.967 17.181 27.855 16.677L27.771 16.278C26.763 17.566 25.51 18.21 24.012 18.21C23.284 18.21 22.626 18.056 22.038 17.748C21.45 17.44 20.988 17.02 20.652 16.488C20.316 15.942 20.148 15.333 20.148 14.661ZM26.616 14.934C26.966 14.696 27.141 14.437 27.141 14.157V13.338C26.917 13.254 26.658 13.184 26.364 13.128C26.084 13.072 25.832 13.044 25.608 13.044C25.132 13.044 24.726 13.163 24.39 13.401C24.068 13.639 23.907 13.94 23.907 14.304C23.907 14.612 24.026 14.864 24.264 15.06C24.516 15.256 24.831 15.354 25.209 15.354C25.727 15.354 26.196 15.214 26.616 14.934Z" stroke="white" stroke-width="0.8" mask="url(#path-2-outside-1_66_30)"/>
<path d="M40.8253 10.356C40.0553 10.356 39.3553 10.44 38.7253 10.608C38.0953 10.776 37.6263 11.056 37.3183 11.448V18H33.3283V6.95401H36.9823V9.05401C37.3743 8.31201 37.8643 7.74501 38.4523 7.35301C39.0403 6.94701 39.6633 6.74401 40.3213 6.74401C40.5873 6.74401 40.7553 6.75101 40.8253 6.76501V10.356Z" stroke="white" stroke-width="0.8" mask="url(#path-2-outside-1_66_30)"/>
<path d="M53.1736 18H49.1836V11.784C49.1836 11.238 49.0576 10.846 48.8056 10.608C48.5676 10.356 48.2666 10.23 47.9026 10.23C47.6366 10.23 47.3076 10.37 46.9156 10.65C46.5376 10.93 46.2506 11.315 46.0546 11.805V18H42.0646V2.67001H46.0546V8.59201C46.4466 7.99001 46.9576 7.53501 47.5876 7.22701C48.2316 6.90501 48.9386 6.74401 49.7086 6.74401C50.4926 6.74401 51.1156 6.87701 51.5776 7.14301C52.0396 7.39501 52.3826 7.72401 52.6066 8.13001C52.8306 8.53601 52.9776 8.97001 53.0476 9.43201C53.1316 9.89401 53.1736 10.328 53.1736 10.734V18Z" stroke="white" stroke-width="0.8" mask="url(#path-2-outside-1_66_30)"/>
<path d="M55.1076 6.03001V2.67001H59.0976V6.03001H55.1076ZM55.1076 18V6.95401H59.0976V18H55.1076Z" stroke="white" stroke-width="0.8" mask="url(#path-2-outside-1_66_30)"/>
<path d="M78.9244 18H74.9344V11.784C74.9344 11.238 74.8224 10.846 74.5984 10.608C74.3884 10.356 74.1294 10.23 73.8214 10.23C73.5134 10.23 73.1774 10.377 72.8134 10.671C72.4494 10.965 72.1834 11.343 72.0154 11.805V18H68.0254V11.784C68.0254 11.238 67.9134 10.846 67.6894 10.608C67.4794 10.356 67.2204 10.23 66.9124 10.23C66.6044 10.23 66.2684 10.377 65.9044 10.671C65.5404 10.965 65.2744 11.343 65.1064 11.805V18H61.1164V6.95401H64.7074V8.59201C65.5054 7.36001 66.8564 6.74401 68.7604 6.74401C69.6704 6.74401 70.3564 6.94001 70.8184 7.33201C71.2804 7.72401 71.5884 8.16501 71.7424 8.65501C72.1344 8.05301 72.6734 7.58401 73.3594 7.24801C74.0454 6.91201 74.8154 6.74401 75.6694 6.74401C76.3974 6.74401 76.9784 6.87701 77.4124 7.14301C77.8464 7.40901 78.1684 7.75201 78.3784 8.17201C78.6024 8.59201 78.7494 9.03301 78.8194 9.49501C78.8894 9.94301 78.9244 10.356 78.9244 10.734V18Z" stroke="white" stroke-width="0.8" mask="url(#path-2-outside-1_66_30)"/>
<path d="M86.3044 18.21C85.0164 18.21 83.9174 17.951 83.0074 17.433C82.1114 16.915 81.4254 16.229 80.9494 15.375C80.4874 14.521 80.2564 13.604 80.2564 12.624C80.2564 11.56 80.4874 10.587 80.9494 9.70501C81.4114 8.80901 82.0904 8.09501 82.9864 7.56301C83.8824 7.01701 84.9884 6.74401 86.3044 6.74401C87.6204 6.74401 88.7264 7.01001 89.6224 7.54201C90.5184 8.07401 91.1974 8.77401 91.6594 9.64201C92.1214 10.51 92.3524 11.455 92.3524 12.477C92.3524 12.911 92.3174 13.317 92.2474 13.695H84.4984C84.5404 14.283 84.7574 14.71 85.1494 14.976C85.5414 15.228 85.9684 15.354 86.4304 15.354C86.8644 15.354 87.2704 15.256 87.6484 15.06C88.0404 14.864 88.2994 14.591 88.4254 14.241L91.8064 15.207C91.3584 16.089 90.6654 16.81 89.7274 17.37C88.7894 17.93 87.6484 18.21 86.3044 18.21ZM84.4144 11.301H88.0684C88.0124 10.769 87.8164 10.349 87.4804 10.041C87.1584 9.73301 86.7454 9.57901 86.2414 9.57901C85.7374 9.57901 85.3244 9.73301 85.0024 10.041C84.6804 10.349 84.4844 10.769 84.4144 11.301Z" stroke="white" stroke-width="0.8" mask="url(#path-2-outside-1_66_30)"/>
<path d="M93.7043 18V14.136H96.9383V18H93.7043Z" stroke="white" stroke-width="0.8" mask="url(#path-2-outside-1_66_30)"/>
</svg>
