<svg width="158" height="29" viewBox="0 0 158 29" fill="none" xmlns="http://www.w3.org/2000/svg">
<mask id="path-1-outside-1_57_21" maskUnits="userSpaceOnUse" x="0" y="0.977661" width="158" height="28" fill="black">
<rect fill="white" y="0.977661" width="158" height="28"/>
<path d="M29.9766 27.964H25.2065V17.4983C25.2065 16.0269 24.9454 14.9471 24.4233 14.2589C23.925 13.5469 23.2249 13.191 22.3231 13.191C21.3738 13.191 20.4838 13.5588 19.6532 14.2945C18.8226 15.0064 18.2293 15.9439 17.8733 17.1067V27.964H13.1032V17.4983C13.1032 16.0032 12.8422 14.9115 12.3201 14.2233C11.8217 13.5351 11.1216 13.191 10.2198 13.191C9.29428 13.191 8.40433 13.5469 7.54999 14.2589C6.71937 14.9708 6.12608 15.9083 5.7701 17.0711V27.964H1V9.3108H5.30733V12.7638C5.99555 11.5535 6.93296 10.6279 8.11955 9.98716C9.32988 9.32267 10.7063 8.99042 12.2489 8.99042C13.7915 8.99042 14.9899 9.37013 15.8443 10.1295C16.7223 10.889 17.28 11.8264 17.5174 12.9418C18.2531 11.6603 19.2142 10.6872 20.4008 10.0228C21.5874 9.33453 22.9164 8.99042 24.3877 8.99042C25.5506 8.99042 26.488 9.20401 27.2 9.63118C27.9356 10.0346 28.5052 10.5923 28.9086 11.3043C29.3121 11.9925 29.585 12.7756 29.7274 13.6537C29.8935 14.5318 29.9766 15.4217 29.9766 16.3236V27.964Z"/>
<path d="M32.848 22.4464C32.848 21.2361 33.1803 20.18 33.8448 19.2782C34.533 18.3526 35.4823 17.6407 36.6926 17.1423C37.9029 16.6439 39.2912 16.3948 40.8575 16.3948C41.6407 16.3948 42.4357 16.4659 43.2426 16.6083C44.0495 16.727 44.7496 16.905 45.3429 17.1423V16.1456C45.3429 14.959 44.9869 14.0453 44.2749 13.4045C43.5867 12.7638 42.5544 12.4434 41.1779 12.4434C40.1574 12.4434 39.1844 12.6214 38.2589 12.9774C37.3334 13.3333 36.3604 13.8554 35.3399 14.5437L33.8092 11.4111C35.0432 10.6042 36.301 9.99902 37.5825 9.59558C38.8878 9.19214 40.2524 8.99042 41.6763 8.99042C44.3343 8.99042 46.3989 9.65491 47.8703 10.9839C49.3654 12.3129 50.113 14.2114 50.113 16.6795V22.6244C50.113 23.1465 50.196 23.5143 50.3621 23.7279C50.5283 23.9177 50.8249 24.0364 51.2521 24.0839V27.964C50.8249 28.059 50.4333 28.1183 50.0774 28.142C49.7451 28.1895 49.4603 28.2132 49.223 28.2132C48.2737 28.2132 47.5499 27.9996 47.0515 27.5725C46.5532 27.1453 46.2565 26.6232 46.1616 26.0062L46.0548 25.045C45.2242 26.1129 44.2037 26.9317 42.9934 27.5013C41.8068 28.0471 40.5846 28.32 39.3268 28.32C38.069 28.32 36.9536 28.0708 35.9806 27.5725C35.0076 27.0504 34.2364 26.3503 33.6668 25.4722C33.121 24.5704 32.848 23.5618 32.848 22.4464ZM44.4529 23.4075C45.0462 22.838 45.3429 22.2921 45.3429 21.77V19.8833C44.1088 19.385 42.8629 19.1358 41.6051 19.1358C40.3473 19.1358 39.3268 19.4087 38.5437 19.9545C37.7605 20.4766 37.369 21.1767 37.369 22.0548C37.369 22.7668 37.6537 23.4075 38.2233 23.9771C38.7929 24.5466 39.6116 24.8314 40.6795 24.8314C41.3915 24.8314 42.0797 24.7009 42.7442 24.4398C43.4324 24.1788 44.002 23.8347 44.4529 23.4075Z"/>
<path d="M65.677 13.4401C64.2293 13.4401 62.9359 13.7249 61.7968 14.2945C60.6577 14.8403 59.8389 15.6353 59.3406 16.6795V27.964H54.5705V9.3108H58.949V13.2977C59.5897 12.0162 60.4204 11.0076 61.4408 10.2719C62.485 9.53625 63.5767 9.13281 64.7158 9.06162C65.2142 9.06162 65.5346 9.07348 65.677 9.09721V13.4401Z"/>
<path d="M85.6729 27.964H80.9028V17.4983C80.9028 16.0506 80.618 14.9708 80.0485 14.2589C79.5026 13.5469 78.7432 13.191 77.7702 13.191C77.1769 13.191 76.5599 13.3571 75.9191 13.6893C75.3021 14.0216 74.7325 14.4843 74.2104 15.0776C73.712 15.6472 73.3442 16.3117 73.1069 17.0711V27.964H68.3368V1.97766H73.1069V12.7638C73.7951 11.5772 74.7325 10.6516 75.9191 9.98716C77.1057 9.32267 78.3991 8.99042 79.7993 8.99042C81.3893 8.99042 82.6115 9.3464 83.4658 10.0584C84.3202 10.7703 84.9016 11.684 85.2101 12.7994C85.5186 13.9148 85.6729 15.0895 85.6729 16.3236V27.964Z"/>
<path d="M89.8206 6.71216V1.97766H94.5907V6.71216H89.8206ZM89.8206 27.964V9.3108H94.5907V27.964H89.8206Z"/>
<path d="M127.87 27.964H123.1V17.4983C123.1 16.0269 122.839 14.9471 122.317 14.2589C121.819 13.5469 121.119 13.191 120.217 13.191C119.268 13.191 118.378 13.5588 117.547 14.2945C116.716 15.0064 116.123 15.9439 115.767 17.1067V27.964H110.997V17.4983C110.997 16.0032 110.736 14.9115 110.214 14.2233C109.716 13.5351 109.015 13.191 108.114 13.191C107.188 13.191 106.298 13.5469 105.444 14.2589C104.613 14.9708 104.02 15.9083 103.664 17.0711V27.964H98.8938V9.3108H103.201V12.7638C103.889 11.5535 104.827 10.6279 106.013 9.98716C107.224 9.32267 108.6 8.99042 110.143 8.99042C111.685 8.99042 112.884 9.37013 113.738 10.1295C114.616 10.889 115.174 11.8264 115.411 12.9418C116.147 11.6603 117.108 10.6872 118.295 10.0228C119.481 9.33453 120.81 8.99042 122.282 8.99042C123.444 8.99042 124.382 9.20401 125.094 9.63118C125.829 10.0346 126.399 10.5923 126.802 11.3043C127.206 11.9925 127.479 12.7756 127.621 13.6537C127.787 14.5318 127.87 15.4217 127.87 16.3236V27.964Z"/>
<path d="M140.674 28.32C138.656 28.32 136.912 27.881 135.441 27.0029C133.993 26.1248 132.866 24.962 132.059 23.5143C131.252 22.0429 130.849 20.4529 130.849 18.7442C130.849 16.9881 131.24 15.3743 132.023 13.9029C132.83 12.4078 133.969 11.2212 135.441 10.3431C136.912 9.44132 138.668 8.99042 140.709 8.99042C142.75 8.99042 144.494 9.44132 145.942 10.3431C147.39 11.2212 148.493 12.3959 149.253 13.8673C150.036 15.315 150.427 16.8813 150.427 18.5662C150.427 19.1832 150.392 19.7172 150.321 20.1681H135.904C136.022 21.6158 136.556 22.7549 137.505 23.5855C138.478 24.4161 139.594 24.8314 140.852 24.8314C141.801 24.8314 142.691 24.606 143.521 24.1551C144.376 23.6804 144.957 23.0634 145.266 22.304L149.36 23.4431C148.671 24.867 147.568 26.0418 146.049 26.9673C144.53 27.8691 142.738 28.32 140.674 28.32ZM135.797 17.1423H145.551C145.408 15.7421 144.874 14.6149 143.949 13.7605C143.047 12.8824 141.943 12.4434 140.638 12.4434C139.357 12.4434 138.253 12.8824 137.327 13.7605C136.426 14.6149 135.915 15.7421 135.797 17.1423Z"/>
<path d="M153.227 27.964V22.838H157.142V27.964H153.227Z"/>
</mask>
<path d="M29.9766 27.964H25.2065V17.4983C25.2065 16.0269 24.9454 14.9471 24.4233 14.2589C23.925 13.5469 23.2249 13.191 22.3231 13.191C21.3738 13.191 20.4838 13.5588 19.6532 14.2945C18.8226 15.0064 18.2293 15.9439 17.8733 17.1067V27.964H13.1032V17.4983C13.1032 16.0032 12.8422 14.9115 12.3201 14.2233C11.8217 13.5351 11.1216 13.191 10.2198 13.191C9.29428 13.191 8.40433 13.5469 7.54999 14.2589C6.71937 14.9708 6.12608 15.9083 5.7701 17.0711V27.964H1V9.3108H5.30733V12.7638C5.99555 11.5535 6.93296 10.6279 8.11955 9.98716C9.32988 9.32267 10.7063 8.99042 12.2489 8.99042C13.7915 8.99042 14.9899 9.37013 15.8443 10.1295C16.7223 10.889 17.28 11.8264 17.5174 12.9418C18.2531 11.6603 19.2142 10.6872 20.4008 10.0228C21.5874 9.33453 22.9164 8.99042 24.3877 8.99042C25.5506 8.99042 26.488 9.20401 27.2 9.63118C27.9356 10.0346 28.5052 10.5923 28.9086 11.3043C29.3121 11.9925 29.585 12.7756 29.7274 13.6537C29.8935 14.5318 29.9766 15.4217 29.9766 16.3236V27.964Z" fill="black"/>
<path d="M32.848 22.4464C32.848 21.2361 33.1803 20.18 33.8448 19.2782C34.533 18.3526 35.4823 17.6407 36.6926 17.1423C37.9029 16.6439 39.2912 16.3948 40.8575 16.3948C41.6407 16.3948 42.4357 16.4659 43.2426 16.6083C44.0495 16.727 44.7496 16.905 45.3429 17.1423V16.1456C45.3429 14.959 44.9869 14.0453 44.2749 13.4045C43.5867 12.7638 42.5544 12.4434 41.1779 12.4434C40.1574 12.4434 39.1844 12.6214 38.2589 12.9774C37.3334 13.3333 36.3604 13.8554 35.3399 14.5437L33.8092 11.4111C35.0432 10.6042 36.301 9.99902 37.5825 9.59558C38.8878 9.19214 40.2524 8.99042 41.6763 8.99042C44.3343 8.99042 46.3989 9.65491 47.8703 10.9839C49.3654 12.3129 50.113 14.2114 50.113 16.6795V22.6244C50.113 23.1465 50.196 23.5143 50.3621 23.7279C50.5283 23.9177 50.8249 24.0364 51.2521 24.0839V27.964C50.8249 28.059 50.4333 28.1183 50.0774 28.142C49.7451 28.1895 49.4603 28.2132 49.223 28.2132C48.2737 28.2132 47.5499 27.9996 47.0515 27.5725C46.5532 27.1453 46.2565 26.6232 46.1616 26.0062L46.0548 25.045C45.2242 26.1129 44.2037 26.9317 42.9934 27.5013C41.8068 28.0471 40.5846 28.32 39.3268 28.32C38.069 28.32 36.9536 28.0708 35.9806 27.5725C35.0076 27.0504 34.2364 26.3503 33.6668 25.4722C33.121 24.5704 32.848 23.5618 32.848 22.4464ZM44.4529 23.4075C45.0462 22.838 45.3429 22.2921 45.3429 21.77V19.8833C44.1088 19.385 42.8629 19.1358 41.6051 19.1358C40.3473 19.1358 39.3268 19.4087 38.5437 19.9545C37.7605 20.4766 37.369 21.1767 37.369 22.0548C37.369 22.7668 37.6537 23.4075 38.2233 23.9771C38.7929 24.5466 39.6116 24.8314 40.6795 24.8314C41.3915 24.8314 42.0797 24.7009 42.7442 24.4398C43.4324 24.1788 44.002 23.8347 44.4529 23.4075Z" fill="black"/>
<path d="M65.677 13.4401C64.2293 13.4401 62.9359 13.7249 61.7968 14.2945C60.6577 14.8403 59.8389 15.6353 59.3406 16.6795V27.964H54.5705V9.3108H58.949V13.2977C59.5897 12.0162 60.4204 11.0076 61.4408 10.2719C62.485 9.53625 63.5767 9.13281 64.7158 9.06162C65.2142 9.06162 65.5346 9.07348 65.677 9.09721V13.4401Z" fill="black"/>
<path d="M85.6729 27.964H80.9028V17.4983C80.9028 16.0506 80.618 14.9708 80.0485 14.2589C79.5026 13.5469 78.7432 13.191 77.7702 13.191C77.1769 13.191 76.5599 13.3571 75.9191 13.6893C75.3021 14.0216 74.7325 14.4843 74.2104 15.0776C73.712 15.6472 73.3442 16.3117 73.1069 17.0711V27.964H68.3368V1.97766H73.1069V12.7638C73.7951 11.5772 74.7325 10.6516 75.9191 9.98716C77.1057 9.32267 78.3991 8.99042 79.7993 8.99042C81.3893 8.99042 82.6115 9.3464 83.4658 10.0584C84.3202 10.7703 84.9016 11.684 85.2101 12.7994C85.5186 13.9148 85.6729 15.0895 85.6729 16.3236V27.964Z" fill="black"/>
<path d="M89.8206 6.71216V1.97766H94.5907V6.71216H89.8206ZM89.8206 27.964V9.3108H94.5907V27.964H89.8206Z" fill="black"/>
<path d="M127.87 27.964H123.1V17.4983C123.1 16.0269 122.839 14.9471 122.317 14.2589C121.819 13.5469 121.119 13.191 120.217 13.191C119.268 13.191 118.378 13.5588 117.547 14.2945C116.716 15.0064 116.123 15.9439 115.767 17.1067V27.964H110.997V17.4983C110.997 16.0032 110.736 14.9115 110.214 14.2233C109.716 13.5351 109.015 13.191 108.114 13.191C107.188 13.191 106.298 13.5469 105.444 14.2589C104.613 14.9708 104.02 15.9083 103.664 17.0711V27.964H98.8938V9.3108H103.201V12.7638C103.889 11.5535 104.827 10.6279 106.013 9.98716C107.224 9.32267 108.6 8.99042 110.143 8.99042C111.685 8.99042 112.884 9.37013 113.738 10.1295C114.616 10.889 115.174 11.8264 115.411 12.9418C116.147 11.6603 117.108 10.6872 118.295 10.0228C119.481 9.33453 120.81 8.99042 122.282 8.99042C123.444 8.99042 124.382 9.20401 125.094 9.63118C125.829 10.0346 126.399 10.5923 126.802 11.3043C127.206 11.9925 127.479 12.7756 127.621 13.6537C127.787 14.5318 127.87 15.4217 127.87 16.3236V27.964Z" fill="black"/>
<path d="M140.674 28.32C138.656 28.32 136.912 27.881 135.441 27.0029C133.993 26.1248 132.866 24.962 132.059 23.5143C131.252 22.0429 130.849 20.4529 130.849 18.7442C130.849 16.9881 131.24 15.3743 132.023 13.9029C132.83 12.4078 133.969 11.2212 135.441 10.3431C136.912 9.44132 138.668 8.99042 140.709 8.99042C142.75 8.99042 144.494 9.44132 145.942 10.3431C147.39 11.2212 148.493 12.3959 149.253 13.8673C150.036 15.315 150.427 16.8813 150.427 18.5662C150.427 19.1832 150.392 19.7172 150.321 20.1681H135.904C136.022 21.6158 136.556 22.7549 137.505 23.5855C138.478 24.4161 139.594 24.8314 140.852 24.8314C141.801 24.8314 142.691 24.606 143.521 24.1551C144.376 23.6804 144.957 23.0634 145.266 22.304L149.36 23.4431C148.671 24.867 147.568 26.0418 146.049 26.9673C144.53 27.8691 142.738 28.32 140.674 28.32ZM135.797 17.1423H145.551C145.408 15.7421 144.874 14.6149 143.949 13.7605C143.047 12.8824 141.943 12.4434 140.638 12.4434C139.357 12.4434 138.253 12.8824 137.327 13.7605C136.426 14.6149 135.915 15.7421 135.797 17.1423Z" fill="black"/>
<path d="M153.227 27.964V22.838H157.142V27.964H153.227Z" fill="black"/>
<path d="M29.9766 27.964H25.2065V17.4983C25.2065 16.0269 24.9454 14.9471 24.4233 14.2589C23.925 13.5469 23.2249 13.191 22.3231 13.191C21.3738 13.191 20.4838 13.5588 19.6532 14.2945C18.8226 15.0064 18.2293 15.9439 17.8733 17.1067V27.964H13.1032V17.4983C13.1032 16.0032 12.8422 14.9115 12.3201 14.2233C11.8217 13.5351 11.1216 13.191 10.2198 13.191C9.29428 13.191 8.40433 13.5469 7.54999 14.2589C6.71937 14.9708 6.12608 15.9083 5.7701 17.0711V27.964H1V9.3108H5.30733V12.7638C5.99555 11.5535 6.93296 10.6279 8.11955 9.98716C9.32988 9.32267 10.7063 8.99042 12.2489 8.99042C13.7915 8.99042 14.9899 9.37013 15.8443 10.1295C16.7223 10.889 17.28 11.8264 17.5174 12.9418C18.2531 11.6603 19.2142 10.6872 20.4008 10.0228C21.5874 9.33453 22.9164 8.99042 24.3877 8.99042C25.5506 8.99042 26.488 9.20401 27.2 9.63118C27.9356 10.0346 28.5052 10.5923 28.9086 11.3043C29.3121 11.9925 29.585 12.7756 29.7274 13.6537C29.8935 14.5318 29.9766 15.4217 29.9766 16.3236V27.964Z" stroke="white" stroke-width="0.8" mask="url(#path-1-outside-1_57_21)"/>
<path d="M32.848 22.4464C32.848 21.2361 33.1803 20.18 33.8448 19.2782C34.533 18.3526 35.4823 17.6407 36.6926 17.1423C37.9029 16.6439 39.2912 16.3948 40.8575 16.3948C41.6407 16.3948 42.4357 16.4659 43.2426 16.6083C44.0495 16.727 44.7496 16.905 45.3429 17.1423V16.1456C45.3429 14.959 44.9869 14.0453 44.2749 13.4045C43.5867 12.7638 42.5544 12.4434 41.1779 12.4434C40.1574 12.4434 39.1844 12.6214 38.2589 12.9774C37.3334 13.3333 36.3604 13.8554 35.3399 14.5437L33.8092 11.4111C35.0432 10.6042 36.301 9.99902 37.5825 9.59558C38.8878 9.19214 40.2524 8.99042 41.6763 8.99042C44.3343 8.99042 46.3989 9.65491 47.8703 10.9839C49.3654 12.3129 50.113 14.2114 50.113 16.6795V22.6244C50.113 23.1465 50.196 23.5143 50.3621 23.7279C50.5283 23.9177 50.8249 24.0364 51.2521 24.0839V27.964C50.8249 28.059 50.4333 28.1183 50.0774 28.142C49.7451 28.1895 49.4603 28.2132 49.223 28.2132C48.2737 28.2132 47.5499 27.9996 47.0515 27.5725C46.5532 27.1453 46.2565 26.6232 46.1616 26.0062L46.0548 25.045C45.2242 26.1129 44.2037 26.9317 42.9934 27.5013C41.8068 28.0471 40.5846 28.32 39.3268 28.32C38.069 28.32 36.9536 28.0708 35.9806 27.5725C35.0076 27.0504 34.2364 26.3503 33.6668 25.4722C33.121 24.5704 32.848 23.5618 32.848 22.4464ZM44.4529 23.4075C45.0462 22.838 45.3429 22.2921 45.3429 21.77V19.8833C44.1088 19.385 42.8629 19.1358 41.6051 19.1358C40.3473 19.1358 39.3268 19.4087 38.5437 19.9545C37.7605 20.4766 37.369 21.1767 37.369 22.0548C37.369 22.7668 37.6537 23.4075 38.2233 23.9771C38.7929 24.5466 39.6116 24.8314 40.6795 24.8314C41.3915 24.8314 42.0797 24.7009 42.7442 24.4398C43.4324 24.1788 44.002 23.8347 44.4529 23.4075Z" stroke="white" stroke-width="0.8" mask="url(#path-1-outside-1_57_21)"/>
<path d="M65.677 13.4401C64.2293 13.4401 62.9359 13.7249 61.7968 14.2945C60.6577 14.8403 59.8389 15.6353 59.3406 16.6795V27.964H54.5705V9.3108H58.949V13.2977C59.5897 12.0162 60.4204 11.0076 61.4408 10.2719C62.485 9.53625 63.5767 9.13281 64.7158 9.06162C65.2142 9.06162 65.5346 9.07348 65.677 9.09721V13.4401Z" stroke="white" stroke-width="0.8" mask="url(#path-1-outside-1_57_21)"/>
<path d="M85.6729 27.964H80.9028V17.4983C80.9028 16.0506 80.618 14.9708 80.0485 14.2589C79.5026 13.5469 78.7432 13.191 77.7702 13.191C77.1769 13.191 76.5599 13.3571 75.9191 13.6893C75.3021 14.0216 74.7325 14.4843 74.2104 15.0776C73.712 15.6472 73.3442 16.3117 73.1069 17.0711V27.964H68.3368V1.97766H73.1069V12.7638C73.7951 11.5772 74.7325 10.6516 75.9191 9.98716C77.1057 9.32267 78.3991 8.99042 79.7993 8.99042C81.3893 8.99042 82.6115 9.3464 83.4658 10.0584C84.3202 10.7703 84.9016 11.684 85.2101 12.7994C85.5186 13.9148 85.6729 15.0895 85.6729 16.3236V27.964Z" stroke="white" stroke-width="0.8" mask="url(#path-1-outside-1_57_21)"/>
<path d="M89.8206 6.71216V1.97766H94.5907V6.71216H89.8206ZM89.8206 27.964V9.3108H94.5907V27.964H89.8206Z" stroke="white" stroke-width="0.8" mask="url(#path-1-outside-1_57_21)"/>
<path d="M127.87 27.964H123.1V17.4983C123.1 16.0269 122.839 14.9471 122.317 14.2589C121.819 13.5469 121.119 13.191 120.217 13.191C119.268 13.191 118.378 13.5588 117.547 14.2945C116.716 15.0064 116.123 15.9439 115.767 17.1067V27.964H110.997V17.4983C110.997 16.0032 110.736 14.9115 110.214 14.2233C109.716 13.5351 109.015 13.191 108.114 13.191C107.188 13.191 106.298 13.5469 105.444 14.2589C104.613 14.9708 104.02 15.9083 103.664 17.0711V27.964H98.8938V9.3108H103.201V12.7638C103.889 11.5535 104.827 10.6279 106.013 9.98716C107.224 9.32267 108.6 8.99042 110.143 8.99042C111.685 8.99042 112.884 9.37013 113.738 10.1295C114.616 10.889 115.174 11.8264 115.411 12.9418C116.147 11.6603 117.108 10.6872 118.295 10.0228C119.481 9.33453 120.81 8.99042 122.282 8.99042C123.444 8.99042 124.382 9.20401 125.094 9.63118C125.829 10.0346 126.399 10.5923 126.802 11.3043C127.206 11.9925 127.479 12.7756 127.621 13.6537C127.787 14.5318 127.87 15.4217 127.87 16.3236V27.964Z" stroke="white" stroke-width="0.8" mask="url(#path-1-outside-1_57_21)"/>
<path d="M140.674 28.32C138.656 28.32 136.912 27.881 135.441 27.0029C133.993 26.1248 132.866 24.962 132.059 23.5143C131.252 22.0429 130.849 20.4529 130.849 18.7442C130.849 16.9881 131.24 15.3743 132.023 13.9029C132.83 12.4078 133.969 11.2212 135.441 10.3431C136.912 9.44132 138.668 8.99042 140.709 8.99042C142.75 8.99042 144.494 9.44132 145.942 10.3431C147.39 11.2212 148.493 12.3959 149.253 13.8673C150.036 15.315 150.427 16.8813 150.427 18.5662C150.427 19.1832 150.392 19.7172 150.321 20.1681H135.904C136.022 21.6158 136.556 22.7549 137.505 23.5855C138.478 24.4161 139.594 24.8314 140.852 24.8314C141.801 24.8314 142.691 24.606 143.521 24.1551C144.376 23.6804 144.957 23.0634 145.266 22.304L149.36 23.4431C148.671 24.867 147.568 26.0418 146.049 26.9673C144.53 27.8691 142.738 28.32 140.674 28.32ZM135.797 17.1423H145.551C145.408 15.7421 144.874 14.6149 143.949 13.7605C143.047 12.8824 141.943 12.4434 140.638 12.4434C139.357 12.4434 138.253 12.8824 137.327 13.7605C136.426 14.6149 135.915 15.7421 135.797 17.1423Z" stroke="white" stroke-width="0.8" mask="url(#path-1-outside-1_57_21)"/>
<path d="M153.227 27.964V22.838H157.142V27.964H153.227Z" stroke="white" stroke-width="0.8" mask="url(#path-1-outside-1_57_21)"/>
<path d="M29.9766 25.9864H25.2065V15.5206C25.2065 14.0493 24.9454 12.9695 24.4233 12.2812C23.925 11.5693 23.2249 11.2133 22.3231 11.2133C21.3738 11.2133 20.4838 11.5811 19.6532 12.3168C18.8226 13.0288 18.2293 13.9662 17.8733 15.1291V25.9864H13.1032V15.5206C13.1032 14.0255 12.8422 12.9339 12.3201 12.2456C11.8217 11.5574 11.1216 11.2133 10.2198 11.2133C9.29428 11.2133 8.40433 11.5693 7.54999 12.2812C6.71937 12.9932 6.12608 13.9306 5.7701 15.0935V25.9864H1V7.33314H5.30733V10.7861C5.99555 9.5758 6.93296 8.65026 8.11955 8.0095C9.32988 7.345 10.7063 7.01276 12.2489 7.01276C13.7915 7.01276 14.9899 7.39247 15.8443 8.15189C16.7223 8.91131 17.28 9.84871 17.5174 10.9641C18.2531 9.68259 19.2142 8.70959 20.4008 8.0451C21.5874 7.35687 22.9164 7.01276 24.3877 7.01276C25.5506 7.01276 26.488 7.22634 27.2 7.65352C27.9356 8.05696 28.5052 8.61466 28.9086 9.32661C29.3121 10.0148 29.585 10.798 29.7274 11.6761C29.8935 12.5541 29.9766 13.4441 29.9766 14.3459V25.9864Z" fill="white"/>
<path d="M32.848 20.4687C32.848 19.2584 33.1803 18.2023 33.8448 17.3005C34.533 16.375 35.4823 15.663 36.6926 15.1646C37.9029 14.6663 39.2912 14.4171 40.8575 14.4171C41.6407 14.4171 42.4357 14.4883 43.2426 14.6307C44.0495 14.7493 44.7496 14.9273 45.3429 15.1646V14.1679C45.3429 12.9813 44.9869 12.0676 44.2749 11.4269C43.5867 10.7861 42.5544 10.4657 41.1779 10.4657C40.1574 10.4657 39.1844 10.6437 38.2589 10.9997C37.3334 11.3557 36.3604 11.8778 35.3399 12.566L33.8092 9.43341C35.0432 8.62652 36.301 8.02136 37.5825 7.61792C38.8878 7.21448 40.2524 7.01276 41.6763 7.01276C44.3343 7.01276 46.3989 7.67725 47.8703 9.00623C49.3654 10.3352 50.113 12.2338 50.113 14.7019V20.6467C50.113 21.1688 50.196 21.5366 50.3621 21.7502C50.5283 21.9401 50.8249 22.0587 51.2521 22.1062V25.9864C50.8249 26.0813 50.4333 26.1406 50.0774 26.1644C49.7451 26.2118 49.4603 26.2356 49.223 26.2356C48.2737 26.2356 47.5499 26.022 47.0515 25.5948C46.5532 25.1676 46.2565 24.6455 46.1616 24.0285L46.0548 23.0674C45.2242 24.1353 44.2037 24.954 42.9934 25.5236C41.8068 26.0694 40.5846 26.3423 39.3268 26.3423C38.069 26.3423 36.9536 26.0932 35.9806 25.5948C35.0076 25.0727 34.2364 24.3726 33.6668 23.4945C33.121 22.5927 32.848 21.5841 32.848 20.4687ZM44.4529 21.4299C45.0462 20.8603 45.3429 20.3145 45.3429 19.7924V17.9057C44.1088 17.4073 42.8629 17.1581 41.6051 17.1581C40.3473 17.1581 39.3268 17.431 38.5437 17.9769C37.7605 18.499 37.369 19.1991 37.369 20.0771C37.369 20.7891 37.6537 21.4299 38.2233 21.9994C38.7929 22.569 39.6116 22.8538 40.6795 22.8538C41.3915 22.8538 42.0797 22.7232 42.7442 22.4622C43.4324 22.2011 44.002 21.857 44.4529 21.4299Z" fill="white"/>
<path d="M65.677 11.4625C64.2293 11.4625 62.9359 11.7473 61.7968 12.3168C60.6577 12.8627 59.8389 13.6577 59.3406 14.7019V25.9864H54.5705V7.33314H58.949V11.3201C59.5897 10.0386 60.4204 9.02997 61.4408 8.29428C62.485 7.55859 63.5767 7.15515 64.7158 7.08395C65.2142 7.08395 65.5346 7.09582 65.677 7.11955V11.4625Z" fill="white"/>
<path d="M85.6729 25.9864H80.9028V15.5206C80.9028 14.073 80.618 12.9932 80.0485 12.2812C79.5026 11.5693 78.7432 11.2133 77.7702 11.2133C77.1769 11.2133 76.5599 11.3794 75.9191 11.7117C75.3021 12.0439 74.7325 12.5067 74.2104 13.1C73.712 13.6695 73.3442 14.334 73.1069 15.0935V25.9864H68.3368V0H73.1069V10.7861C73.7951 9.59953 74.7325 8.67399 75.9191 8.0095C77.1057 7.345 78.3991 7.01276 79.7993 7.01276C81.3893 7.01276 82.6115 7.36874 83.4658 8.08069C84.3202 8.79265 84.9016 9.70632 85.2101 10.8217C85.5186 11.9371 85.6729 13.1118 85.6729 14.3459V25.9864Z" fill="white"/>
<path d="M89.8206 4.7345V0H94.5907V4.7345H89.8206ZM89.8206 25.9864V7.33314H94.5907V25.9864H89.8206Z" fill="white"/>
<path d="M127.87 25.9864H123.1V15.5206C123.1 14.0493 122.839 12.9695 122.317 12.2812C121.819 11.5693 121.119 11.2133 120.217 11.2133C119.268 11.2133 118.378 11.5811 117.547 12.3168C116.716 13.0288 116.123 13.9662 115.767 15.1291V25.9864H110.997V15.5206C110.997 14.0255 110.736 12.9339 110.214 12.2456C109.716 11.5574 109.015 11.2133 108.114 11.2133C107.188 11.2133 106.298 11.5693 105.444 12.2812C104.613 12.9932 104.02 13.9306 103.664 15.0935V25.9864H98.8938V7.33314H103.201V10.7861C103.889 9.5758 104.827 8.65026 106.013 8.0095C107.224 7.345 108.6 7.01276 110.143 7.01276C111.685 7.01276 112.884 7.39247 113.738 8.15189C114.616 8.91131 115.174 9.84871 115.411 10.9641C116.147 9.68259 117.108 8.70959 118.295 8.0451C119.481 7.35687 120.81 7.01276 122.282 7.01276C123.444 7.01276 124.382 7.22634 125.094 7.65352C125.829 8.05696 126.399 8.61466 126.802 9.32661C127.206 10.0148 127.479 10.798 127.621 11.6761C127.787 12.5541 127.87 13.4441 127.87 14.3459V25.9864Z" fill="white"/>
<path d="M140.674 26.3423C138.656 26.3423 136.912 25.9033 135.441 25.0252C133.993 24.1471 132.866 22.9843 132.059 21.5366C131.252 20.0653 130.849 18.4752 130.849 16.7665C130.849 15.0104 131.24 13.3966 132.023 11.9253C132.83 10.4301 133.969 9.24355 135.441 8.36547C136.912 7.46366 138.668 7.01276 140.709 7.01276C142.75 7.01276 144.494 7.46366 145.942 8.36547C147.39 9.24355 148.493 10.4183 149.253 11.8897C150.036 13.3373 150.427 14.9036 150.427 16.5886C150.427 17.2056 150.392 17.7396 150.321 18.1905H135.904C136.022 19.6381 136.556 20.7772 137.505 21.6078C138.478 22.4385 139.594 22.8538 140.852 22.8538C141.801 22.8538 142.691 22.6283 143.521 22.1774C144.376 21.7028 144.957 21.0857 145.266 20.3263L149.36 21.4655C148.671 22.8894 147.568 24.0641 146.049 24.9896C144.53 25.8914 142.738 26.3423 140.674 26.3423ZM135.797 15.1646H145.551C145.408 13.7645 144.874 12.6372 143.949 11.7829C143.047 10.9048 141.943 10.4657 140.638 10.4657C139.357 10.4657 138.253 10.9048 137.327 11.7829C136.426 12.6372 135.915 13.7645 135.797 15.1646Z" fill="white"/>
<path d="M153.227 25.9864V20.8603H157.142V25.9864H153.227Z" fill="white"/>
</svg>
