<svg width="24" height="12" viewBox="0 0 24 12" fill="none" xmlns="http://www.w3.org/2000/svg">
<path d="M17.816 12H13.826V5.784C13.826 5.238 13.714 4.846 13.49 4.608C13.28 4.356 13.021 4.23 12.713 4.23C12.405 4.23 12.069 4.377 11.705 4.671C11.341 4.965 11.075 5.343 10.907 5.805V12H6.917V5.784C6.917 5.238 6.805 4.846 6.581 4.608C6.371 4.356 6.112 4.23 5.804 4.23C5.496 4.23 5.16 4.377 4.796 4.671C4.432 4.965 4.166 5.343 3.998 5.805V12H0.00800001V0.954H3.599V2.592C4.397 1.36 5.748 0.744 7.652 0.744C8.562 0.744 9.248 0.94 9.71 1.332C10.172 1.724 10.48 2.165 10.634 2.655C11.026 2.053 11.565 1.584 12.251 1.248C12.937 0.912 13.707 0.744 14.561 0.744C15.289 0.744 15.87 0.877 16.304 1.143C16.738 1.409 17.06 1.752 17.27 2.172C17.494 2.592 17.641 3.033 17.711 3.495C17.781 3.943 17.816 4.356 17.816 4.734V12ZM19.799 12V8.136H23.033V12H19.799Z" fill="white"/>
</svg>
