<svg width="25" height="13" viewBox="0 0 25 13" fill="none" xmlns="http://www.w3.org/2000/svg">
<path d="M18.816 12.2H19.016L18.711 3.49499L18.9087 3.46503C18.9087 3.46477 18.9087 3.46451 18.9086 3.46424C18.8352 2.98052 18.6814 2.51889 18.4477 2.08017C18.2195 1.62501 17.8708 1.25581 17.4085 0.972468C16.9323 0.680609 16.3108 0.543988 15.561 0.543988C14.6801 0.543988 13.8795 0.71745 13.163 1.06838C12.5658 1.36088 12.0721 1.75184 11.6851 2.2413C11.4983 1.85152 11.2145 1.49775 10.8394 1.17949C10.3269 0.744676 9.58644 0.543988 8.652 0.543988C6.96194 0.543988 5.66517 1.02037 4.799 1.99814V0.953988V0.753988H4.599H1.008H0.807996V0.953988V12V12.2H1.008H4.998H5.198V12V5.84085C5.35465 5.4262 5.5959 5.08969 5.92166 4.82658C6.26771 4.54708 6.56016 4.42999 6.804 4.42999C7.04837 4.42999 7.25253 4.52624 7.42735 4.73603L7.42707 4.73626L7.43536 4.74506C7.6074 4.92785 7.717 5.25695 7.717 5.78399V12V12.2H7.917H11.907H12.107V12V5.84085C12.2637 5.4262 12.5049 5.08969 12.8307 4.82658C13.1767 4.54708 13.4692 4.42999 13.713 4.42999C13.9574 4.42999 14.1615 4.52623 14.3364 4.73603L14.3361 4.73626L14.3444 4.74506C14.5164 4.92785 14.626 5.25695 14.626 5.78399V12V12.2H14.826H18.816ZM20.599 12V12.2H20.799H24.033H24.233V12V8.13599V7.93599H24.033H20.799H20.599V8.13599V12Z" fill="black" stroke="white" stroke-width="0.4"/>
</svg>
