<svg width="81" height="15" viewBox="0 0 81 15" fill="none" xmlns="http://www.w3.org/2000/svg">
<mask id="path-1-outside-1_57_7" maskUnits="userSpaceOnUse" x="0" y="0" width="81" height="15" fill="black">
<rect fill="white" width="81" height="15"/>
<path d="M15.652 14.14H13.24V8.848C13.24 8.104 13.108 7.558 12.844 7.21C12.592 6.85 12.238 6.67 11.782 6.67C11.302 6.67 10.852 6.856 10.432 7.228C10.012 7.588 9.712 8.062 9.532 8.65V14.14H7.12V8.848C7.12 8.092 6.988 7.54 6.724 7.192C6.472 6.844 6.118 6.67 5.662 6.67C5.194 6.67 4.744 6.85 4.312 7.21C3.892 7.57 3.592 8.044 3.412 8.632V14.14H1V4.708H3.178V6.454C3.526 5.842 4 5.374 4.6 5.05C5.212 4.714 5.908 4.546 6.688 4.546C7.468 4.546 8.074 4.738 8.506 5.122C8.95 5.506 9.232 5.98 9.352 6.544C9.724 5.896 10.21 5.404 10.81 5.068C11.41 4.72 12.082 4.546 12.826 4.546C13.414 4.546 13.888 4.654 14.248 4.87C14.62 5.074 14.908 5.356 15.112 5.716C15.316 6.064 15.454 6.46 15.526 6.904C15.61 7.348 15.652 7.798 15.652 8.254V14.14Z"/>
<path d="M17.104 11.35C17.104 10.738 17.272 10.204 17.608 9.748C17.956 9.28 18.436 8.92 19.048 8.668C19.66 8.416 20.362 8.29 21.154 8.29C21.55 8.29 21.952 8.326 22.36 8.398C22.768 8.458 23.122 8.548 23.422 8.668V8.164C23.422 7.564 23.242 7.102 22.882 6.778C22.534 6.454 22.012 6.292 21.316 6.292C20.8 6.292 20.308 6.382 19.84 6.562C19.372 6.742 18.88 7.006 18.364 7.354L17.59 5.77C18.214 5.362 18.85 5.056 19.498 4.852C20.158 4.648 20.848 4.546 21.568 4.546C22.912 4.546 23.956 4.882 24.7 5.554C25.456 6.226 25.834 7.186 25.834 8.434V11.44C25.834 11.704 25.876 11.89 25.96 11.998C26.044 12.094 26.194 12.154 26.41 12.178V14.14C26.194 14.188 25.996 14.218 25.816 14.23C25.648 14.254 25.504 14.266 25.384 14.266C24.904 14.266 24.538 14.158 24.286 13.942C24.034 13.726 23.884 13.462 23.836 13.15L23.782 12.664C23.362 13.204 22.846 13.618 22.234 13.906C21.634 14.182 21.016 14.32 20.38 14.32C19.744 14.32 19.18 14.194 18.688 13.942C18.196 13.678 17.806 13.324 17.518 12.88C17.242 12.424 17.104 11.914 17.104 11.35ZM22.972 11.836C23.272 11.548 23.422 11.272 23.422 11.008V10.054C22.798 9.802 22.168 9.676 21.532 9.676C20.896 9.676 20.38 9.814 19.984 10.09C19.588 10.354 19.39 10.708 19.39 11.152C19.39 11.512 19.534 11.836 19.822 12.124C20.11 12.412 20.524 12.556 21.064 12.556C21.424 12.556 21.772 12.49 22.108 12.358C22.456 12.226 22.744 12.052 22.972 11.836Z"/>
<path d="M33.7039 6.796C32.9719 6.796 32.3179 6.94 31.7419 7.228C31.1659 7.504 30.7519 7.906 30.4999 8.434V14.14H28.0879V4.708H30.3019V6.724C30.6259 6.076 31.0459 5.566 31.5619 5.194C32.0899 4.822 32.6419 4.618 33.2179 4.582C33.4699 4.582 33.6319 4.588 33.7039 4.6V6.796Z"/>
<path d="M43.8148 14.14H41.4028V8.848C41.4028 8.116 41.2588 7.57 40.9708 7.21C40.6948 6.85 40.3108 6.67 39.8188 6.67C39.5188 6.67 39.2068 6.754 38.8828 6.922C38.5708 7.09 38.2828 7.324 38.0188 7.624C37.7668 7.912 37.5808 8.248 37.4608 8.632V14.14H35.0488V1H37.4608V6.454C37.8088 5.854 38.2828 5.386 38.8828 5.05C39.4828 4.714 40.1368 4.546 40.8448 4.546C41.6488 4.546 42.2668 4.726 42.6988 5.086C43.1308 5.446 43.4248 5.908 43.5808 6.472C43.7368 7.036 43.8148 7.63 43.8148 8.254V14.14Z"/>
<path d="M45.9121 3.394V1H48.3241V3.394H45.9121ZM45.9121 14.14V4.708H48.3241V14.14H45.9121Z"/>
<path d="M65.152 14.14H62.74V8.848C62.74 8.104 62.608 7.558 62.344 7.21C62.092 6.85 61.738 6.67 61.282 6.67C60.802 6.67 60.352 6.856 59.932 7.228C59.512 7.588 59.212 8.062 59.032 8.65V14.14H56.62V8.848C56.62 8.092 56.488 7.54 56.224 7.192C55.972 6.844 55.618 6.67 55.162 6.67C54.694 6.67 54.244 6.85 53.812 7.21C53.392 7.57 53.092 8.044 52.912 8.632V14.14H50.5V4.708H52.678V6.454C53.026 5.842 53.5 5.374 54.1 5.05C54.712 4.714 55.408 4.546 56.188 4.546C56.968 4.546 57.574 4.738 58.006 5.122C58.45 5.506 58.732 5.98 58.852 6.544C59.224 5.896 59.71 5.404 60.31 5.068C60.91 4.72 61.582 4.546 62.326 4.546C62.914 4.546 63.388 4.654 63.748 4.87C64.12 5.074 64.408 5.356 64.612 5.716C64.816 6.064 64.954 6.46 65.026 6.904C65.11 7.348 65.152 7.798 65.152 8.254V14.14Z"/>
<path d="M71.626 14.32C70.606 14.32 69.724 14.098 68.9799 13.654C68.2479 13.21 67.678 12.622 67.27 11.89C66.862 11.146 66.658 10.342 66.658 9.478C66.658 8.59 66.856 7.774 67.252 7.03C67.66 6.274 68.2359 5.674 68.9799 5.23C69.724 4.774 70.612 4.546 71.644 4.546C72.676 4.546 73.558 4.774 74.29 5.23C75.022 5.674 75.58 6.268 75.964 7.012C76.36 7.744 76.558 8.536 76.558 9.388C76.558 9.7 76.54 9.97 76.504 10.198H69.214C69.274 10.93 69.544 11.506 70.024 11.926C70.516 12.346 71.0799 12.556 71.716 12.556C72.1959 12.556 72.646 12.442 73.066 12.214C73.498 11.974 73.792 11.662 73.948 11.278L76.018 11.854C75.67 12.574 75.112 13.168 74.344 13.636C73.576 14.092 72.67 14.32 71.626 14.32ZM69.16 8.668H74.092C74.02 7.96 73.75 7.39 73.282 6.958C72.826 6.514 72.268 6.292 71.608 6.292C70.96 6.292 70.402 6.514 69.934 6.958C69.478 7.39 69.22 7.96 69.16 8.668Z"/>
<path d="M77.9733 14.14V11.548H79.9533V14.14H77.9733Z"/>
</mask>
<path d="M15.652 14.14H13.24V8.848C13.24 8.104 13.108 7.558 12.844 7.21C12.592 6.85 12.238 6.67 11.782 6.67C11.302 6.67 10.852 6.856 10.432 7.228C10.012 7.588 9.712 8.062 9.532 8.65V14.14H7.12V8.848C7.12 8.092 6.988 7.54 6.724 7.192C6.472 6.844 6.118 6.67 5.662 6.67C5.194 6.67 4.744 6.85 4.312 7.21C3.892 7.57 3.592 8.044 3.412 8.632V14.14H1V4.708H3.178V6.454C3.526 5.842 4 5.374 4.6 5.05C5.212 4.714 5.908 4.546 6.688 4.546C7.468 4.546 8.074 4.738 8.506 5.122C8.95 5.506 9.232 5.98 9.352 6.544C9.724 5.896 10.21 5.404 10.81 5.068C11.41 4.72 12.082 4.546 12.826 4.546C13.414 4.546 13.888 4.654 14.248 4.87C14.62 5.074 14.908 5.356 15.112 5.716C15.316 6.064 15.454 6.46 15.526 6.904C15.61 7.348 15.652 7.798 15.652 8.254V14.14Z" fill="black"/>
<path d="M17.104 11.35C17.104 10.738 17.272 10.204 17.608 9.748C17.956 9.28 18.436 8.92 19.048 8.668C19.66 8.416 20.362 8.29 21.154 8.29C21.55 8.29 21.952 8.326 22.36 8.398C22.768 8.458 23.122 8.548 23.422 8.668V8.164C23.422 7.564 23.242 7.102 22.882 6.778C22.534 6.454 22.012 6.292 21.316 6.292C20.8 6.292 20.308 6.382 19.84 6.562C19.372 6.742 18.88 7.006 18.364 7.354L17.59 5.77C18.214 5.362 18.85 5.056 19.498 4.852C20.158 4.648 20.848 4.546 21.568 4.546C22.912 4.546 23.956 4.882 24.7 5.554C25.456 6.226 25.834 7.186 25.834 8.434V11.44C25.834 11.704 25.876 11.89 25.96 11.998C26.044 12.094 26.194 12.154 26.41 12.178V14.14C26.194 14.188 25.996 14.218 25.816 14.23C25.648 14.254 25.504 14.266 25.384 14.266C24.904 14.266 24.538 14.158 24.286 13.942C24.034 13.726 23.884 13.462 23.836 13.15L23.782 12.664C23.362 13.204 22.846 13.618 22.234 13.906C21.634 14.182 21.016 14.32 20.38 14.32C19.744 14.32 19.18 14.194 18.688 13.942C18.196 13.678 17.806 13.324 17.518 12.88C17.242 12.424 17.104 11.914 17.104 11.35ZM22.972 11.836C23.272 11.548 23.422 11.272 23.422 11.008V10.054C22.798 9.802 22.168 9.676 21.532 9.676C20.896 9.676 20.38 9.814 19.984 10.09C19.588 10.354 19.39 10.708 19.39 11.152C19.39 11.512 19.534 11.836 19.822 12.124C20.11 12.412 20.524 12.556 21.064 12.556C21.424 12.556 21.772 12.49 22.108 12.358C22.456 12.226 22.744 12.052 22.972 11.836Z" fill="black"/>
<path d="M33.7039 6.796C32.9719 6.796 32.3179 6.94 31.7419 7.228C31.1659 7.504 30.7519 7.906 30.4999 8.434V14.14H28.0879V4.708H30.3019V6.724C30.6259 6.076 31.0459 5.566 31.5619 5.194C32.0899 4.822 32.6419 4.618 33.2179 4.582C33.4699 4.582 33.6319 4.588 33.7039 4.6V6.796Z" fill="black"/>
<path d="M43.8148 14.14H41.4028V8.848C41.4028 8.116 41.2588 7.57 40.9708 7.21C40.6948 6.85 40.3108 6.67 39.8188 6.67C39.5188 6.67 39.2068 6.754 38.8828 6.922C38.5708 7.09 38.2828 7.324 38.0188 7.624C37.7668 7.912 37.5808 8.248 37.4608 8.632V14.14H35.0488V1H37.4608V6.454C37.8088 5.854 38.2828 5.386 38.8828 5.05C39.4828 4.714 40.1368 4.546 40.8448 4.546C41.6488 4.546 42.2668 4.726 42.6988 5.086C43.1308 5.446 43.4248 5.908 43.5808 6.472C43.7368 7.036 43.8148 7.63 43.8148 8.254V14.14Z" fill="black"/>
<path d="M45.9121 3.394V1H48.3241V3.394H45.9121ZM45.9121 14.14V4.708H48.3241V14.14H45.9121Z" fill="black"/>
<path d="M65.152 14.14H62.74V8.848C62.74 8.104 62.608 7.558 62.344 7.21C62.092 6.85 61.738 6.67 61.282 6.67C60.802 6.67 60.352 6.856 59.932 7.228C59.512 7.588 59.212 8.062 59.032 8.65V14.14H56.62V8.848C56.62 8.092 56.488 7.54 56.224 7.192C55.972 6.844 55.618 6.67 55.162 6.67C54.694 6.67 54.244 6.85 53.812 7.21C53.392 7.57 53.092 8.044 52.912 8.632V14.14H50.5V4.708H52.678V6.454C53.026 5.842 53.5 5.374 54.1 5.05C54.712 4.714 55.408 4.546 56.188 4.546C56.968 4.546 57.574 4.738 58.006 5.122C58.45 5.506 58.732 5.98 58.852 6.544C59.224 5.896 59.71 5.404 60.31 5.068C60.91 4.72 61.582 4.546 62.326 4.546C62.914 4.546 63.388 4.654 63.748 4.87C64.12 5.074 64.408 5.356 64.612 5.716C64.816 6.064 64.954 6.46 65.026 6.904C65.11 7.348 65.152 7.798 65.152 8.254V14.14Z" fill="black"/>
<path d="M71.626 14.32C70.606 14.32 69.724 14.098 68.9799 13.654C68.2479 13.21 67.678 12.622 67.27 11.89C66.862 11.146 66.658 10.342 66.658 9.478C66.658 8.59 66.856 7.774 67.252 7.03C67.66 6.274 68.2359 5.674 68.9799 5.23C69.724 4.774 70.612 4.546 71.644 4.546C72.676 4.546 73.558 4.774 74.29 5.23C75.022 5.674 75.58 6.268 75.964 7.012C76.36 7.744 76.558 8.536 76.558 9.388C76.558 9.7 76.54 9.97 76.504 10.198H69.214C69.274 10.93 69.544 11.506 70.024 11.926C70.516 12.346 71.0799 12.556 71.716 12.556C72.1959 12.556 72.646 12.442 73.066 12.214C73.498 11.974 73.792 11.662 73.948 11.278L76.018 11.854C75.67 12.574 75.112 13.168 74.344 13.636C73.576 14.092 72.67 14.32 71.626 14.32ZM69.16 8.668H74.092C74.02 7.96 73.75 7.39 73.282 6.958C72.826 6.514 72.268 6.292 71.608 6.292C70.96 6.292 70.402 6.514 69.934 6.958C69.478 7.39 69.22 7.96 69.16 8.668Z" fill="black"/>
<path d="M77.9733 14.14V11.548H79.9533V14.14H77.9733Z" fill="black"/>
<path d="M15.652 14.14H13.24V8.848C13.24 8.104 13.108 7.558 12.844 7.21C12.592 6.85 12.238 6.67 11.782 6.67C11.302 6.67 10.852 6.856 10.432 7.228C10.012 7.588 9.712 8.062 9.532 8.65V14.14H7.12V8.848C7.12 8.092 6.988 7.54 6.724 7.192C6.472 6.844 6.118 6.67 5.662 6.67C5.194 6.67 4.744 6.85 4.312 7.21C3.892 7.57 3.592 8.044 3.412 8.632V14.14H1V4.708H3.178V6.454C3.526 5.842 4 5.374 4.6 5.05C5.212 4.714 5.908 4.546 6.688 4.546C7.468 4.546 8.074 4.738 8.506 5.122C8.95 5.506 9.232 5.98 9.352 6.544C9.724 5.896 10.21 5.404 10.81 5.068C11.41 4.72 12.082 4.546 12.826 4.546C13.414 4.546 13.888 4.654 14.248 4.87C14.62 5.074 14.908 5.356 15.112 5.716C15.316 6.064 15.454 6.46 15.526 6.904C15.61 7.348 15.652 7.798 15.652 8.254V14.14Z" stroke="white" stroke-width="0.8" mask="url(#path-1-outside-1_57_7)"/>
<path d="M17.104 11.35C17.104 10.738 17.272 10.204 17.608 9.748C17.956 9.28 18.436 8.92 19.048 8.668C19.66 8.416 20.362 8.29 21.154 8.29C21.55 8.29 21.952 8.326 22.36 8.398C22.768 8.458 23.122 8.548 23.422 8.668V8.164C23.422 7.564 23.242 7.102 22.882 6.778C22.534 6.454 22.012 6.292 21.316 6.292C20.8 6.292 20.308 6.382 19.84 6.562C19.372 6.742 18.88 7.006 18.364 7.354L17.59 5.77C18.214 5.362 18.85 5.056 19.498 4.852C20.158 4.648 20.848 4.546 21.568 4.546C22.912 4.546 23.956 4.882 24.7 5.554C25.456 6.226 25.834 7.186 25.834 8.434V11.44C25.834 11.704 25.876 11.89 25.96 11.998C26.044 12.094 26.194 12.154 26.41 12.178V14.14C26.194 14.188 25.996 14.218 25.816 14.23C25.648 14.254 25.504 14.266 25.384 14.266C24.904 14.266 24.538 14.158 24.286 13.942C24.034 13.726 23.884 13.462 23.836 13.15L23.782 12.664C23.362 13.204 22.846 13.618 22.234 13.906C21.634 14.182 21.016 14.32 20.38 14.32C19.744 14.32 19.18 14.194 18.688 13.942C18.196 13.678 17.806 13.324 17.518 12.88C17.242 12.424 17.104 11.914 17.104 11.35ZM22.972 11.836C23.272 11.548 23.422 11.272 23.422 11.008V10.054C22.798 9.802 22.168 9.676 21.532 9.676C20.896 9.676 20.38 9.814 19.984 10.09C19.588 10.354 19.39 10.708 19.39 11.152C19.39 11.512 19.534 11.836 19.822 12.124C20.11 12.412 20.524 12.556 21.064 12.556C21.424 12.556 21.772 12.49 22.108 12.358C22.456 12.226 22.744 12.052 22.972 11.836Z" stroke="white" stroke-width="0.8" mask="url(#path-1-outside-1_57_7)"/>
<path d="M33.7039 6.796C32.9719 6.796 32.3179 6.94 31.7419 7.228C31.1659 7.504 30.7519 7.906 30.4999 8.434V14.14H28.0879V4.708H30.3019V6.724C30.6259 6.076 31.0459 5.566 31.5619 5.194C32.0899 4.822 32.6419 4.618 33.2179 4.582C33.4699 4.582 33.6319 4.588 33.7039 4.6V6.796Z" stroke="white" stroke-width="0.8" mask="url(#path-1-outside-1_57_7)"/>
<path d="M43.8148 14.14H41.4028V8.848C41.4028 8.116 41.2588 7.57 40.9708 7.21C40.6948 6.85 40.3108 6.67 39.8188 6.67C39.5188 6.67 39.2068 6.754 38.8828 6.922C38.5708 7.09 38.2828 7.324 38.0188 7.624C37.7668 7.912 37.5808 8.248 37.4608 8.632V14.14H35.0488V1H37.4608V6.454C37.8088 5.854 38.2828 5.386 38.8828 5.05C39.4828 4.714 40.1368 4.546 40.8448 4.546C41.6488 4.546 42.2668 4.726 42.6988 5.086C43.1308 5.446 43.4248 5.908 43.5808 6.472C43.7368 7.036 43.8148 7.63 43.8148 8.254V14.14Z" stroke="white" stroke-width="0.8" mask="url(#path-1-outside-1_57_7)"/>
<path d="M45.9121 3.394V1H48.3241V3.394H45.9121ZM45.9121 14.14V4.708H48.3241V14.14H45.9121Z" stroke="white" stroke-width="0.8" mask="url(#path-1-outside-1_57_7)"/>
<path d="M65.152 14.14H62.74V8.848C62.74 8.104 62.608 7.558 62.344 7.21C62.092 6.85 61.738 6.67 61.282 6.67C60.802 6.67 60.352 6.856 59.932 7.228C59.512 7.588 59.212 8.062 59.032 8.65V14.14H56.62V8.848C56.62 8.092 56.488 7.54 56.224 7.192C55.972 6.844 55.618 6.67 55.162 6.67C54.694 6.67 54.244 6.85 53.812 7.21C53.392 7.57 53.092 8.044 52.912 8.632V14.14H50.5V4.708H52.678V6.454C53.026 5.842 53.5 5.374 54.1 5.05C54.712 4.714 55.408 4.546 56.188 4.546C56.968 4.546 57.574 4.738 58.006 5.122C58.45 5.506 58.732 5.98 58.852 6.544C59.224 5.896 59.71 5.404 60.31 5.068C60.91 4.72 61.582 4.546 62.326 4.546C62.914 4.546 63.388 4.654 63.748 4.87C64.12 5.074 64.408 5.356 64.612 5.716C64.816 6.064 64.954 6.46 65.026 6.904C65.11 7.348 65.152 7.798 65.152 8.254V14.14Z" stroke="white" stroke-width="0.8" mask="url(#path-1-outside-1_57_7)"/>
<path d="M71.626 14.32C70.606 14.32 69.724 14.098 68.9799 13.654C68.2479 13.21 67.678 12.622 67.27 11.89C66.862 11.146 66.658 10.342 66.658 9.478C66.658 8.59 66.856 7.774 67.252 7.03C67.66 6.274 68.2359 5.674 68.9799 5.23C69.724 4.774 70.612 4.546 71.644 4.546C72.676 4.546 73.558 4.774 74.29 5.23C75.022 5.674 75.58 6.268 75.964 7.012C76.36 7.744 76.558 8.536 76.558 9.388C76.558 9.7 76.54 9.97 76.504 10.198H69.214C69.274 10.93 69.544 11.506 70.024 11.926C70.516 12.346 71.0799 12.556 71.716 12.556C72.1959 12.556 72.646 12.442 73.066 12.214C73.498 11.974 73.792 11.662 73.948 11.278L76.018 11.854C75.67 12.574 75.112 13.168 74.344 13.636C73.576 14.092 72.67 14.32 71.626 14.32ZM69.16 8.668H74.092C74.02 7.96 73.75 7.39 73.282 6.958C72.826 6.514 72.268 6.292 71.608 6.292C70.96 6.292 70.402 6.514 69.934 6.958C69.478 7.39 69.22 7.96 69.16 8.668Z" stroke="white" stroke-width="0.8" mask="url(#path-1-outside-1_57_7)"/>
<path d="M77.9733 14.14V11.548H79.9533V14.14H77.9733Z" stroke="white" stroke-width="0.8" mask="url(#path-1-outside-1_57_7)"/>
</svg>
