<svg width="93" height="17" viewBox="0 0 93 17" fill="none" xmlns="http://www.w3.org/2000/svg">
<path d="M17.094 16H14.28V9.82598C14.28 8.95798 14.126 8.32098 13.818 7.91498C13.524 7.49498 13.111 7.28498 12.579 7.28498C12.019 7.28498 11.494 7.50198 11.004 7.93598C10.514 8.35598 10.164 8.90898 9.954 9.59498V16H7.14V9.82598C7.14 8.94398 6.986 8.29998 6.678 7.89398C6.384 7.48798 5.971 7.28498 5.439 7.28498C4.893 7.28498 4.368 7.49498 3.864 7.91498C3.374 8.33498 3.024 8.88798 2.814 9.57398V16H0V4.99598H2.541V7.03298C2.947 6.31898 3.5 5.77298 4.2 5.39498C4.914 5.00298 5.726 4.80698 6.636 4.80698C7.546 4.80698 8.253 5.03098 8.757 5.47898C9.275 5.92698 9.604 6.47998 9.744 7.13798C10.178 6.38198 10.745 5.80798 11.445 5.41598C12.145 5.00998 12.929 4.80698 13.797 4.80698C14.483 4.80698 15.036 4.93298 15.456 5.18498C15.89 5.42298 16.226 5.75198 16.464 6.17198C16.702 6.57798 16.863 7.03998 16.947 7.55798C17.045 8.07598 17.094 8.60098 17.094 9.13298V16Z" fill="white"/>
<path d="M18.7879 12.745C18.7879 12.031 18.9839 11.408 19.3759 10.876C19.7819 10.33 20.3419 9.90998 21.0559 9.61598C21.7699 9.32198 22.5889 9.17498 23.5129 9.17498C23.9749 9.17498 24.4439 9.21698 24.9199 9.30098C25.3959 9.37098 25.8089 9.47598 26.1589 9.61598V9.02798C26.1589 8.32798 25.9489 7.78898 25.5289 7.41098C25.1229 7.03298 24.5139 6.84398 23.7019 6.84398C23.0999 6.84398 22.5259 6.94898 21.9799 7.15898C21.4339 7.36898 20.8599 7.67698 20.2579 8.08298L19.3549 6.23498C20.0829 5.75898 20.8249 5.40198 21.5809 5.16398C22.3509 4.92598 23.1559 4.80698 23.9959 4.80698C25.5639 4.80698 26.7819 5.19898 27.6499 5.98298C28.5319 6.76698 28.9729 7.88698 28.9729 9.34298V12.85C28.9729 13.158 29.0219 13.375 29.1199 13.501C29.2179 13.613 29.3929 13.683 29.6449 13.711V16C29.3929 16.056 29.1619 16.091 28.9519 16.105C28.7559 16.133 28.5879 16.147 28.4479 16.147C27.8879 16.147 27.4609 16.021 27.1669 15.769C26.8729 15.517 26.6979 15.209 26.6419 14.845L26.5789 14.278C26.0889 14.908 25.4869 15.391 24.7729 15.727C24.0729 16.049 23.3519 16.21 22.6099 16.21C21.8679 16.21 21.2099 16.063 20.6359 15.769C20.0619 15.461 19.6069 15.048 19.2709 14.53C18.9489 13.998 18.7879 13.403 18.7879 12.745ZM25.6339 13.312C25.9839 12.976 26.1589 12.654 26.1589 12.346V11.233C25.4309 10.939 24.6959 10.792 23.9539 10.792C23.2119 10.792 22.6099 10.953 22.1479 11.275C21.6859 11.583 21.4549 11.996 21.4549 12.514C21.4549 12.934 21.6229 13.312 21.9589 13.648C22.2949 13.984 22.7779 14.152 23.4079 14.152C23.8279 14.152 24.2339 14.075 24.6259 13.921C25.0319 13.767 25.3679 13.564 25.6339 13.312Z" fill="white"/>
<path d="M38.1545 7.43198C37.3005 7.43198 36.5375 7.59998 35.8655 7.93598C35.1935 8.25798 34.7105 8.72698 34.4165 9.34298V16H31.6025V4.99598H34.1855V7.34798C34.5635 6.59198 35.0535 5.99698 35.6555 5.56298C36.2715 5.12898 36.9155 4.89098 37.5875 4.84898C37.8815 4.84898 38.0705 4.85598 38.1545 4.86998V7.43198Z" fill="white"/>
<path d="M49.9506 16H47.1366V9.82598C47.1366 8.97198 46.9686 8.33498 46.6326 7.91498C46.3106 7.49498 45.8626 7.28498 45.2886 7.28498C44.9386 7.28498 44.5746 7.38298 44.1966 7.57898C43.8326 7.77498 43.4966 8.04798 43.1886 8.39798C42.8946 8.73398 42.6776 9.12598 42.5376 9.57398V16H39.7236V0.669983H42.5376V7.03298C42.9436 6.33298 43.4966 5.78698 44.1966 5.39498C44.8966 5.00298 45.6596 4.80698 46.4856 4.80698C47.4236 4.80698 48.1446 5.01698 48.6486 5.43698C49.1526 5.85698 49.4956 6.39598 49.6776 7.05398C49.8596 7.71198 49.9506 8.40498 49.9506 9.13298V16Z" fill="white"/>
<path d="M52.3975 3.46298V0.669983H55.2115V3.46298H52.3975ZM52.3975 16V4.99598H55.2115V16H52.3975Z" fill="white"/>
<path d="M74.844 16H72.03V9.82598C72.03 8.95798 71.876 8.32098 71.568 7.91498C71.274 7.49498 70.861 7.28498 70.329 7.28498C69.769 7.28498 69.244 7.50198 68.754 7.93598C68.264 8.35598 67.914 8.90898 67.704 9.59498V16H64.89V9.82598C64.89 8.94398 64.736 8.29998 64.428 7.89398C64.134 7.48798 63.721 7.28498 63.189 7.28498C62.643 7.28498 62.118 7.49498 61.614 7.91498C61.124 8.33498 60.774 8.88798 60.564 9.57398V16H57.75V4.99598H60.291V7.03298C60.697 6.31898 61.25 5.77298 61.95 5.39498C62.664 5.00298 63.476 4.80698 64.386 4.80698C65.296 4.80698 66.003 5.03098 66.507 5.47898C67.025 5.92698 67.354 6.47998 67.494 7.13798C67.928 6.38198 68.495 5.80798 69.195 5.41598C69.895 5.00998 70.679 4.80698 71.547 4.80698C72.233 4.80698 72.786 4.93298 73.206 5.18498C73.64 5.42298 73.976 5.75198 74.214 6.17198C74.452 6.57798 74.613 7.03998 74.697 7.55798C74.795 8.07598 74.844 8.60098 74.844 9.13298V16Z" fill="white"/>
<path d="M82.3969 16.21C81.2069 16.21 80.1779 15.951 79.3099 15.433C78.4559 14.915 77.7909 14.229 77.3149 13.375C76.8389 12.507 76.6009 11.569 76.6009 10.561C76.6009 9.52498 76.8319 8.57298 77.2939 7.70498C77.7699 6.82298 78.4419 6.12298 79.3099 5.60498C80.1779 5.07298 81.2139 4.80698 82.4179 4.80698C83.6219 4.80698 84.6509 5.07298 85.5049 5.60498C86.3589 6.12298 87.0099 6.81598 87.4579 7.68398C87.9199 8.53798 88.1509 9.46198 88.1509 10.456C88.1509 10.82 88.13 11.135 88.088 11.401H79.5829C79.6529 12.255 79.9679 12.927 80.5279 13.417C81.1019 13.907 81.7599 14.152 82.5019 14.152C83.0619 14.152 83.587 14.019 84.077 13.753C84.581 13.473 84.9239 13.109 85.1059 12.661L87.521 13.333C87.115 14.173 86.4639 14.866 85.5679 15.412C84.6719 15.944 83.6149 16.21 82.3969 16.21ZM79.52 9.61598H85.2739C85.1899 8.78998 84.8749 8.12498 84.3289 7.62098C83.7969 7.10298 83.1459 6.84398 82.3759 6.84398C81.6199 6.84398 80.969 7.10298 80.423 7.62098C79.891 8.12498 79.59 8.78998 79.52 9.61598Z" fill="white"/>
<path d="M17.094 15.33H14.28V9.156C14.28 8.288 14.126 7.651 13.818 7.245C13.524 6.825 13.111 6.615 12.579 6.615C12.019 6.615 11.494 6.832 11.004 7.266C10.514 7.686 10.164 8.239 9.954 8.925V15.33H7.14V9.156C7.14 8.274 6.986 7.63 6.678 7.224C6.384 6.818 5.971 6.615 5.439 6.615C4.893 6.615 4.368 6.825 3.864 7.245C3.374 7.665 3.024 8.218 2.814 8.904V15.33H0V4.326H2.541V6.363C2.947 5.649 3.5 5.103 4.2 4.725C4.914 4.333 5.726 4.137 6.636 4.137C7.546 4.137 8.253 4.361 8.757 4.809C9.275 5.257 9.604 5.81 9.744 6.468C10.178 5.712 10.745 5.138 11.445 4.746C12.145 4.34 12.929 4.137 13.797 4.137C14.483 4.137 15.036 4.263 15.456 4.515C15.89 4.753 16.226 5.082 16.464 5.502C16.702 5.908 16.863 6.37 16.947 6.888C17.045 7.406 17.094 7.931 17.094 8.463V15.33Z" fill="white"/>
<path d="M18.7879 12.075C18.7879 11.361 18.9839 10.738 19.3759 10.206C19.7819 9.66 20.3419 9.24 21.0559 8.946C21.7699 8.652 22.5889 8.505 23.5129 8.505C23.9749 8.505 24.4439 8.547 24.9199 8.631C25.3959 8.701 25.8089 8.806 26.1589 8.946V8.358C26.1589 7.658 25.9489 7.119 25.5289 6.741C25.1229 6.363 24.5139 6.174 23.7019 6.174C23.0999 6.174 22.5259 6.279 21.9799 6.489C21.4339 6.699 20.8599 7.007 20.2579 7.413L19.3549 5.565C20.0829 5.089 20.8249 4.732 21.5809 4.494C22.3509 4.256 23.1559 4.137 23.9959 4.137C25.5639 4.137 26.7819 4.529 27.6499 5.313C28.5319 6.097 28.9729 7.217 28.9729 8.673V12.18C28.9729 12.488 29.0219 12.705 29.1199 12.831C29.2179 12.943 29.3929 13.013 29.6449 13.041V15.33C29.3929 15.386 29.1619 15.421 28.9519 15.435C28.7559 15.463 28.5879 15.477 28.4479 15.477C27.8879 15.477 27.4609 15.351 27.1669 15.099C26.8729 14.847 26.6979 14.539 26.6419 14.175L26.5789 13.608C26.0889 14.238 25.4869 14.721 24.7729 15.057C24.0729 15.379 23.3519 15.54 22.6099 15.54C21.8679 15.54 21.2099 15.393 20.6359 15.099C20.0619 14.791 19.6069 14.378 19.2709 13.86C18.9489 13.328 18.7879 12.733 18.7879 12.075ZM25.6339 12.642C25.9839 12.306 26.1589 11.984 26.1589 11.676V10.563C25.4309 10.269 24.6959 10.122 23.9539 10.122C23.2119 10.122 22.6099 10.283 22.1479 10.605C21.6859 10.913 21.4549 11.326 21.4549 11.844C21.4549 12.264 21.6229 12.642 21.9589 12.978C22.2949 13.314 22.7779 13.482 23.4079 13.482C23.8279 13.482 24.2339 13.405 24.6259 13.251C25.0319 13.097 25.3679 12.894 25.6339 12.642Z" fill="white"/>
<path d="M38.1545 6.762C37.3005 6.762 36.5375 6.93 35.8655 7.266C35.1935 7.588 34.7105 8.057 34.4165 8.673V15.33H31.6025V4.326H34.1855V6.678C34.5635 5.922 35.0535 5.327 35.6555 4.893C36.2715 4.459 36.9155 4.221 37.5875 4.179C37.8815 4.179 38.0705 4.186 38.1545 4.2V6.762Z" fill="white"/>
<path d="M49.9506 15.33H47.1366V9.156C47.1366 8.302 46.9686 7.665 46.6326 7.245C46.3106 6.825 45.8626 6.615 45.2886 6.615C44.9386 6.615 44.5746 6.713 44.1966 6.909C43.8326 7.105 43.4966 7.378 43.1886 7.728C42.8946 8.064 42.6776 8.456 42.5376 8.904V15.33H39.7236V0H42.5376V6.363C42.9436 5.663 43.4966 5.117 44.1966 4.725C44.8966 4.333 45.6596 4.137 46.4856 4.137C47.4236 4.137 48.1446 4.347 48.6486 4.767C49.1526 5.187 49.4956 5.726 49.6776 6.384C49.8596 7.042 49.9506 7.735 49.9506 8.463V15.33Z" fill="white"/>
<path d="M52.3975 2.793V0H55.2115V2.793H52.3975ZM52.3975 15.33V4.326H55.2115V15.33H52.3975Z" fill="white"/>
<path d="M74.844 15.33H72.03V9.156C72.03 8.288 71.876 7.651 71.568 7.245C71.274 6.825 70.861 6.615 70.329 6.615C69.769 6.615 69.244 6.832 68.754 7.266C68.264 7.686 67.914 8.239 67.704 8.925V15.33H64.89V9.156C64.89 8.274 64.736 7.63 64.428 7.224C64.134 6.818 63.721 6.615 63.189 6.615C62.643 6.615 62.118 6.825 61.614 7.245C61.124 7.665 60.774 8.218 60.564 8.904V15.33H57.75V4.326H60.291V6.363C60.697 5.649 61.25 5.103 61.95 4.725C62.664 4.333 63.476 4.137 64.386 4.137C65.296 4.137 66.003 4.361 66.507 4.809C67.025 5.257 67.354 5.81 67.494 6.468C67.928 5.712 68.495 5.138 69.195 4.746C69.895 4.34 70.679 4.137 71.547 4.137C72.233 4.137 72.786 4.263 73.206 4.515C73.64 4.753 73.976 5.082 74.214 5.502C74.452 5.908 74.613 6.37 74.697 6.888C74.795 7.406 74.844 7.931 74.844 8.463V15.33Z" fill="white"/>
<path d="M82.3969 15.54C81.2069 15.54 80.1779 15.281 79.3099 14.763C78.4559 14.245 77.7909 13.559 77.3149 12.705C76.8389 11.837 76.6009 10.899 76.6009 9.891C76.6009 8.855 76.8319 7.903 77.2939 7.035C77.7699 6.153 78.4419 5.453 79.3099 4.935C80.1779 4.403 81.2139 4.137 82.4179 4.137C83.6219 4.137 84.6509 4.403 85.5049 4.935C86.3589 5.453 87.0099 6.146 87.4579 7.014C87.9199 7.868 88.1509 8.792 88.1509 9.786C88.1509 10.15 88.13 10.465 88.088 10.731H79.5829C79.6529 11.585 79.9679 12.257 80.5279 12.747C81.1019 13.237 81.7599 13.482 82.5019 13.482C83.0619 13.482 83.587 13.349 84.077 13.083C84.581 12.803 84.9239 12.439 85.1059 11.991L87.521 12.663C87.115 13.503 86.4639 14.196 85.5679 14.742C84.6719 15.274 83.6149 15.54 82.3969 15.54ZM79.52 8.946H85.2739C85.1899 8.12 84.8749 7.455 84.3289 6.951C83.7969 6.433 83.1459 6.174 82.3759 6.174C81.6199 6.174 80.969 6.433 80.423 6.951C79.891 7.455 79.59 8.12 79.52 8.946Z" fill="white"/>
<path d="M89.8022 15.33V12.306H92.1122V15.33H89.8022Z" fill="white"/>
</svg>
